<svg width="126" height="125" viewBox="0 0 126 125" fill="none" xmlns="http://www.w3.org/2000/svg">
<g filter="url(#filter0_d)">
<rect x="40.0491" y="28.5244" width="45.5118" height="44" rx="12" fill="#363636"/>
</g>
<path d="M54.5297 41.5244H71.0795C71.3538 41.5244 71.6169 41.6298 71.8109 41.8173C72.0049 42.0048 72.1138 42.2592 72.1138 42.5244V58.5244C72.1138 58.7896 72.0049 59.044 71.8109 59.2315C71.6169 59.4191 71.3538 59.5244 71.0795 59.5244H54.5297C54.2554 59.5244 53.9923 59.4191 53.7983 59.2315C53.6043 59.044 53.4954 58.7896 53.4954 58.5244V42.5244C53.4954 42.2592 53.6043 42.0048 53.7983 41.8173C53.9923 41.6298 54.2554 41.5244 54.5297 41.5244ZM68.2867 54.4644C68.1833 54.4144 68.1316 54.2644 68.1316 54.1634V46.5304C68.1316 46.4304 68.1833 46.2804 68.2867 46.1794L69.2745 45.0744V45.0244H65.7422L63.0942 51.5024L60.0801 45.0244H56.4454V45.0744L57.3794 46.3304C57.5873 46.5304 57.639 46.8324 57.639 47.0834V52.6064C57.6907 52.9084 57.639 53.2594 57.4839 53.5604L56.0813 55.4184V55.4684H59.8215V55.4184L58.4189 53.6114C58.2638 53.3094 58.211 53.0084 58.2638 52.6574V47.6344C58.3155 47.7344 58.3672 47.7344 58.4189 47.9354L61.9502 55.5684H62.0019L65.4319 47.2844C65.3802 47.5844 65.3802 47.9364 65.3802 48.1884V54.1134C65.3802 54.2634 65.3284 54.3634 65.225 54.4644L64.1855 55.4184V55.4684H69.2756V55.4184L68.2888 54.4644H68.2867Z" fill="white"/>
<defs>
<filter id="filter0_d" x="0.0490723" y="0.524414" width="125.512" height="124" filterUnits="userSpaceOnUse" color-interpolation-filters="sRGB">
<feFlood flood-opacity="0" result="BackgroundImageFix"/>
<feColorMatrix in="SourceAlpha" type="matrix" values="0 0 0 0 0 0 0 0 0 0 0 0 0 0 0 0 0 0 127 0"/>
<feOffset dy="12"/>
<feGaussianBlur stdDeviation="20"/>
<feColorMatrix type="matrix" values="0 0 0 0 0.027451 0 0 0 0 0.027451 0 0 0 0 0.027451 0 0 0 0.12 0"/>
<feBlend mode="normal" in2="BackgroundImageFix" result="effect1_dropShadow"/>
<feBlend mode="normal" in="SourceGraphic" in2="effect1_dropShadow" result="shape"/>
</filter>
</defs>
</svg>
