<svg width="129" height="49" viewBox="0 0 129 49" fill="none" xmlns="http://www.w3.org/2000/svg">
<path d="M74.0771 19.4548C72.7127 19.4548 71.641 19.7468 70.5687 20.3297C70.5687 17.218 70.5687 14.3984 70.6666 13.4263L64.1354 14.5927V15.1761L64.8177 15.2733C65.6941 15.4676 65.9879 15.9534 66.181 17.1209C66.3774 19.4548 66.2789 31.9021 66.181 33.9445C67.9355 34.3337 69.7879 34.6257 71.6404 34.6257C76.8066 34.6257 79.9255 31.4163 79.9255 26.3593C79.9255 22.3727 77.3914 19.4548 74.0771 19.4548ZM71.8352 33.5554C71.4451 33.5554 70.9571 33.5554 70.6655 33.4588C70.5675 32.0975 70.4707 26.3593 70.5675 21.3029C71.1524 21.108 71.5419 21.0109 72.0299 21.0109C74.1756 21.0109 75.3453 23.5391 75.3453 26.6502C75.3447 30.5414 73.8824 33.5554 71.8352 33.5554ZM39.5711 13.8149H22.4155V14.6898L23.3904 14.787C24.6569 14.9813 25.145 15.7591 25.3392 17.6066C25.6324 21.1075 25.5345 27.4291 25.3392 30.4425C25.1444 32.2907 24.6575 33.1662 23.3904 33.2622L22.4155 33.4576V34.2354H33.4301V33.4576L32.2604 33.2622C30.9933 33.1656 30.5059 32.2907 30.3111 30.4425C30.2132 29.1779 30.1158 27.1354 30.1158 24.6078L32.4551 24.7049C33.9175 24.7049 34.5992 25.8719 34.8919 27.5246H35.7694V20.6223H34.8919C34.5986 22.2756 33.9175 23.442 32.4551 23.442L30.1164 23.5397C30.1164 20.2331 30.2137 17.1214 30.3117 15.2739H33.7228C36.3554 15.2739 37.7198 16.9266 38.6942 19.8445L39.6691 19.5525L39.5711 13.8149Z" fill="#070707"/>
<path d="M45.1273 19.2605C50.0013 19.2605 52.4381 22.567 52.4381 26.9428C52.4381 31.1243 49.7086 34.6263 44.8346 34.6263C39.9611 34.6263 37.5244 31.3192 37.5244 26.9428C37.5244 22.7613 40.2533 19.2605 45.1273 19.2605ZM44.8346 20.2331C42.69 20.2331 42.1052 23.1505 42.1052 26.9428C42.1052 30.638 43.0801 33.6525 45.0299 33.6525C47.2702 33.6525 47.8562 30.7351 47.8562 26.9428C47.8562 23.2476 46.8824 20.2331 44.8346 20.2331ZM81.1919 27.0405C81.1919 23.0533 83.726 19.2605 88.6974 19.2605C92.7902 19.2605 94.7406 22.2756 94.7406 26.2622H85.6753C85.5773 29.8602 87.3319 32.4861 90.8414 32.4861C92.4012 32.4861 93.1808 32.0981 94.1563 31.4169L94.5452 31.9026C93.5703 33.2639 91.4263 34.6263 88.6974 34.6263C84.3109 34.6257 81.1919 31.514 81.1919 27.0405ZM85.6753 25.1929L90.2566 25.0952C90.2566 23.1505 89.9639 20.2331 88.3073 20.2331C86.6508 20.2331 85.7721 22.9556 85.6753 25.1929ZM106.342 20.0388C105.172 19.5519 103.613 19.2605 101.858 19.2605C98.2524 19.2605 96.0093 21.3995 96.0093 23.9283C96.0093 26.457 97.6647 27.5263 100.007 28.3046C102.443 29.179 103.126 29.8602 103.126 31.0271C103.126 32.1941 102.248 33.2633 100.689 33.2633C98.8372 33.2633 97.4717 32.1941 96.3999 29.2761L95.7172 29.4716L95.8151 33.7502C96.9848 34.236 99.1288 34.6257 100.981 34.6257C104.783 34.6257 107.22 32.6798 107.22 29.6659C107.22 27.6234 106.147 26.457 103.613 25.4838C100.883 24.4146 99.9095 23.734 99.9095 22.4693C99.9095 21.2052 100.788 20.3297 101.958 20.3297C103.711 20.3297 104.881 21.3995 105.76 24.0254L106.441 23.8311L106.342 20.0388ZM65.1092 19.6496C63.4526 18.6781 60.5278 19.1633 58.9686 22.6647L59.0655 19.261L52.5354 20.5251V21.1086L53.2176 21.2058C54.0958 21.3035 54.4847 21.7892 54.5826 23.0539C54.7774 25.3878 54.68 29.4727 54.5826 31.5146C54.4847 32.6804 54.0958 33.2639 53.2176 33.3616L52.5354 33.4593V34.2371H61.6001V33.4593L60.4305 33.3616C59.4561 33.2639 59.1634 32.6804 59.0655 31.5146C58.8707 29.6664 58.8707 25.9713 58.9686 23.6374C59.4555 22.9562 61.6001 22.3733 63.5494 23.6374L65.1092 19.6496Z" fill="#070707"/>
</svg>
