<svg width="225" height="49" viewBox="0 0 225 49" fill="none" xmlns="http://www.w3.org/2000/svg">
<path d="M10.8328 31.8435C11.8133 31.7731 12.4487 31.6278 12.7389 31.4083C13.0291 31.1807 13.1743 30.6004 13.1743 29.6669V18.9477C13.1743 18.0614 13.0291 17.4925 12.7389 17.2417C12.4487 16.9826 11.8133 16.8298 10.8328 16.7826V16.3355H17.9632V16.7826C16.9826 16.8298 16.3473 16.9826 16.057 17.2417C15.7668 17.4925 15.6217 18.0614 15.6217 18.9477V29.6669C15.6217 30.6004 15.7668 31.1807 16.057 31.4083C16.3473 31.6278 16.9826 31.7731 17.9632 31.8435V32.2791H10.8328V31.8435ZM23.258 24.0307C24.9916 23.968 26.231 23.7876 26.9762 23.4894C28.2548 22.964 28.8941 21.9756 28.8941 20.5244C28.8941 19.128 28.3215 18.1749 27.1762 17.6651C26.5644 17.3905 25.7525 17.2533 24.7406 17.2533C24.0582 17.2533 23.6385 17.3044 23.4816 17.4063C23.3326 17.5004 23.258 17.728 23.258 18.0887V24.0307ZM18.7398 31.8435C19.6654 31.7573 20.2419 31.577 20.4694 31.3024C20.6969 31.0277 20.8106 30.3886 20.8106 29.3844V18.9477C20.8106 18.1006 20.6812 17.5474 20.4223 17.2886C20.1713 17.0218 19.6105 16.8533 18.7398 16.7826V16.3355H25.4113C26.7997 16.3355 27.9567 16.512 28.8824 16.865C30.6395 17.5317 31.518 18.7593 31.518 20.5479C31.518 21.748 31.1258 22.6699 30.3414 23.3129C29.5648 23.9561 28.5058 24.3798 27.1645 24.5839L32.1298 30.6904C32.4358 31.0669 32.7417 31.3417 33.0476 31.514C33.3536 31.6867 33.7458 31.7966 34.2242 31.8435V32.2791H30.3414L24.5994 24.8662L23.258 24.925V29.6669C23.258 30.5612 23.3914 31.1298 23.6581 31.3729C23.9327 31.6082 24.5249 31.7651 25.4348 31.8435V32.2791H18.7398V31.8435ZM34.9302 31.8435C35.9109 31.7731 36.5461 31.6278 36.8364 31.4083C37.1267 31.1807 37.2717 30.6004 37.2717 29.6669V18.9477C37.2717 18.0614 37.1267 17.4925 36.8364 17.2417C36.5461 16.9826 35.9109 16.8298 34.9302 16.7826V16.3355H42.0605V16.7826C41.0801 16.8298 40.4448 16.9826 40.1545 17.2417C39.8643 17.4925 39.7192 18.0614 39.7192 18.9477V29.6669C39.7192 30.6004 39.8643 31.1807 40.1545 31.4083C40.4448 31.6278 41.0801 31.7731 42.0605 31.8435V32.2791H34.9302V31.8435ZM44.1198 27.4311C44.5277 28.5138 45.0061 29.3766 45.5552 30.0198C46.5122 31.1415 47.7006 31.7024 49.1205 31.7024C49.8894 31.7024 50.552 31.4593 51.109 30.973C51.6736 30.4866 51.9564 29.808 51.9564 28.9372C51.9564 28.1528 51.6736 27.4704 51.109 26.8901C50.7401 26.5213 49.9635 25.9682 48.7794 25.231L46.7201 23.9484C46.1004 23.5562 45.6062 23.1601 45.2375 22.7599C44.5551 21.999 44.214 21.1597 44.214 20.2419C44.214 19.0261 44.6178 18.0142 45.4259 17.2063C46.2338 16.3982 47.3045 15.9944 48.638 15.9944C49.1871 15.9944 49.8463 16.1317 50.6149 16.4062C51.3915 16.673 51.8346 16.8061 51.9443 16.8061C52.2423 16.8061 52.4464 16.7357 52.5563 16.5945C52.6737 16.4532 52.764 16.2532 52.8269 15.9944H53.3208L53.8507 21.1244H53.2738C52.8817 19.5791 52.2505 18.5005 51.3795 17.8888C50.5166 17.2768 49.6618 16.971 48.8145 16.971C48.1557 16.971 47.5791 17.1671 47.085 17.5593C46.5986 17.9437 46.3553 18.4809 46.3553 19.1711C46.3553 19.7909 46.5436 20.3204 46.9201 20.7598C47.2968 21.2069 47.881 21.6734 48.6733 22.1598L50.7914 23.4659C52.1169 24.2817 53.0504 25.031 53.5917 25.7132C54.125 26.4037 54.3916 27.2193 54.3916 28.1608C54.3916 29.4236 53.9132 30.4786 52.9562 31.3259C52.0072 32.173 50.7914 32.5967 49.3088 32.5967C48.5634 32.5967 47.7829 32.4555 46.9673 32.173C46.1592 31.8907 45.6965 31.7494 45.5789 31.7494C45.2964 31.7494 45.1041 31.8358 45.0022 32.0084C44.9081 32.181 44.8453 32.3652 44.8139 32.5613H44.2844L43.5668 27.4311H44.1198ZM56.3685 31.8435C57.3098 31.7416 57.8983 31.569 58.1334 31.3259C58.3689 31.0749 58.4864 30.4278 58.4864 29.3844V18.9477C58.4864 18.0849 58.353 17.5239 58.0864 17.2651C57.8276 17.0063 57.2551 16.8454 56.3685 16.7826V16.3355H63.0636V16.7826C62.1771 16.8454 61.6007 17.0063 61.3341 17.2651C61.0671 17.5239 60.9337 18.0849 60.9337 18.9477V23.6424H68.2408V18.9477C68.2408 18.0849 68.1113 17.5239 67.8525 17.2651C67.5937 17.0063 67.0173 16.8454 66.123 16.7826V16.3355H72.8176V16.7826C71.9315 16.8454 71.3549 17.0063 71.0881 17.2651C70.8293 17.5239 70.6998 18.0849 70.6998 18.9477V29.6669C70.6998 30.5454 70.8293 31.1102 71.0881 31.3613C71.3549 31.6044 71.9315 31.7651 72.8176 31.8435V32.2791H66.123V31.8435C67.072 31.7494 67.6605 31.577 67.8878 31.3259C68.1229 31.0749 68.2408 30.4278 68.2408 29.3844V24.7015H60.9337V29.6669C60.9337 30.5454 61.0671 31.1102 61.3341 31.3613C61.6007 31.6121 62.1771 31.7731 63.0636 31.8435V32.2791H56.3685V31.8435ZM79.8896 16.3355H93.503L93.6326 20.4303H93.0561C92.7736 19.1438 92.4129 18.3083 91.9737 17.9241C91.5423 17.5317 90.6282 17.3356 89.232 17.3356H87.8906V29.6669C87.8906 30.6004 88.0356 31.1807 88.3261 31.4083C88.6164 31.6278 89.2514 31.7731 90.2321 31.8435V32.2791H83.2075V31.8435C84.2275 31.7651 84.8625 31.5966 85.1135 31.3376C85.3648 31.0788 85.4902 30.4278 85.4902 29.3844V17.3356H84.149C82.8153 17.3356 81.9055 17.5278 81.4189 17.9123C80.9406 18.2967 80.5798 19.136 80.3365 20.4303H79.7485L79.8896 16.3355ZM94.4211 31.8435C95.3074 31.7494 95.8797 31.5925 96.1387 31.3729C96.4057 31.1456 96.5389 30.5767 96.5389 29.6669V18.9477C96.5389 18.0926 96.4096 17.5358 96.1506 17.2768C95.8918 17.0102 95.3151 16.8454 94.4211 16.7826V16.3355H107.223L107.305 19.7948H106.693C106.489 18.7281 106.183 18.0377 105.775 17.7239C105.368 17.4102 104.458 17.2533 103.046 17.2533H99.7747C99.4217 17.2533 99.2022 17.3121 99.1157 17.4298C99.0373 17.5397 98.9981 17.7515 98.9981 18.0653V23.4424H102.704C103.732 23.4424 104.387 23.2894 104.67 22.9836C104.952 22.6776 105.179 22.0579 105.352 21.1244H105.917V26.7017H105.352C105.171 25.7682 104.94 25.1525 104.658 24.8543C104.375 24.5485 103.724 24.3955 102.704 24.3955H98.9981V30.361C98.9981 30.8396 99.147 31.1219 99.445 31.2083C99.751 31.2945 100.657 31.3376 102.163 31.3376C103.795 31.3376 104.999 31.1611 105.775 30.8081C106.552 30.4474 107.25 29.5805 107.87 28.2078H108.541L107.446 32.2791H94.4211V31.8435ZM117.801 16.0532C118.671 16.0532 119.566 16.1825 120.483 16.4415C121.401 16.7003 121.915 16.8298 122.025 16.8298C122.252 16.8298 122.468 16.7669 122.672 16.6415C122.876 16.5159 123.017 16.3198 123.096 16.0532H123.602L123.825 21.4657H123.272C122.951 20.391 122.531 19.5243 122.013 18.8654C121.025 17.6259 119.695 17.0063 118.024 17.0063C116.338 17.0063 114.957 17.6731 113.882 19.0065C112.816 20.34 112.282 22.1755 112.282 24.5132C112.282 26.6625 112.843 28.3804 113.965 29.6669C115.094 30.9454 116.522 31.5847 118.248 31.5847C119.495 31.5847 120.644 31.2867 121.695 30.6904C122.299 30.3532 122.962 29.8434 123.684 29.1609L124.131 29.608C123.598 30.2825 122.935 30.8749 122.142 31.3848C120.793 32.2476 119.33 32.679 117.754 32.679C115.165 32.679 113.11 31.8515 111.588 30.1963C110.184 28.6668 109.482 26.7567 109.482 24.466C109.482 22.1206 110.223 20.1519 111.706 18.5594C113.266 16.8887 115.298 16.0532 117.801 16.0532ZM125.343 31.8435C126.284 31.7416 126.873 31.569 127.108 31.3259C127.343 31.0749 127.461 30.4278 127.461 29.3844V18.9477C127.461 18.0849 127.327 17.5239 127.061 17.2651C126.802 17.0063 126.229 16.8454 125.343 16.7826V16.3355H132.038V16.7826C131.152 16.8454 130.575 17.0063 130.309 17.2651C130.042 17.5239 129.908 18.0849 129.908 18.9477V23.6424H137.215V18.9477C137.215 18.0849 137.086 17.5239 136.827 17.2651C136.568 17.0063 135.992 16.8454 135.097 16.7826V16.3355H141.792V16.7826C140.906 16.8454 140.329 17.0063 140.063 17.2651C139.804 17.5239 139.674 18.0849 139.674 18.9477V29.6669C139.674 30.5454 139.804 31.1102 140.063 31.3613C140.329 31.6044 140.906 31.7651 141.792 31.8435V32.2791H135.097V31.8435C136.046 31.7494 136.635 31.577 136.862 31.3259C137.097 31.0749 137.215 30.4278 137.215 29.3844V24.7015H129.908V29.6669C129.908 30.5454 130.042 31.1102 130.309 31.3613C130.575 31.6121 131.152 31.7731 132.038 31.8435V32.2791H125.343V31.8435ZM148.664 31.8435C149.66 31.7416 150.299 31.5182 150.582 31.1729C150.864 30.82 151.005 30.008 151.005 28.7372V18.1122L150.676 17.7239C150.323 17.3082 150.021 17.0533 149.77 16.9591C149.527 16.8572 149.158 16.7984 148.664 16.7826V16.3355H152.794L162.078 27.9371V19.8773C162.078 18.5516 161.881 17.6888 161.489 17.2886C161.23 17.0298 160.658 16.8611 159.771 16.7826V16.3355H165.431V16.7826C164.513 16.8768 163.901 17.1003 163.595 17.4532C163.289 17.8064 163.136 18.6143 163.136 19.8773V32.5613H162.725L152.064 19.3476V28.7372C152.064 30.0552 152.257 30.9141 152.641 31.3141C152.892 31.5729 153.452 31.7494 154.324 31.8435V32.2791H148.664V31.8435ZM166.078 31.8435C166.964 31.7494 167.537 31.5925 167.796 31.3729C168.063 31.1456 168.196 30.5767 168.196 29.6669V18.9477C168.196 18.0926 168.066 17.5358 167.808 17.2768C167.549 17.0102 166.972 16.8454 166.078 16.7826V16.3355H178.88L178.962 19.7948H178.35C178.146 18.7281 177.84 18.0377 177.433 17.7239C177.025 17.4102 176.115 17.2533 174.703 17.2533H171.432C171.079 17.2533 170.859 17.3121 170.773 17.4298C170.694 17.5397 170.655 17.7515 170.655 18.0653V23.4424H174.361C175.389 23.4424 176.044 23.2894 176.326 22.9836C176.609 22.6776 176.837 22.0579 177.009 21.1244H177.574V26.7017H177.009C176.829 25.7682 176.597 25.1525 176.315 24.8543C176.032 24.5485 175.381 24.3955 174.361 24.3955H170.655V30.361C170.655 30.8396 170.804 31.1219 171.102 31.2083C171.408 31.2945 172.314 31.3376 173.82 31.3376C175.452 31.3376 176.656 31.1611 177.433 30.8081C178.209 30.4474 178.907 29.5805 179.527 28.2078H180.198L179.103 32.2791H166.078V31.8435ZM186.552 16.3355V16.7826C186.073 16.7984 185.732 16.8415 185.528 16.9122C185.167 17.0456 184.986 17.2886 184.986 17.6416C184.986 17.7985 185.006 17.9515 185.045 18.1006C185.092 18.2495 185.159 18.4417 185.245 18.677L188.728 27.7371L191.293 20.9362L190.152 18.0299C189.94 17.4966 189.622 17.1395 189.199 16.9591C188.948 16.8495 188.567 16.7906 188.058 16.7826V16.3355H194.505V16.7826C193.901 16.7906 193.486 16.8337 193.258 16.9122C192.897 17.0456 192.717 17.3201 192.717 17.7358C192.717 17.8769 192.733 18.0025 192.764 18.1122C192.796 18.2141 192.874 18.4299 192.999 18.7593L196.482 27.796L199.494 19.6183C199.667 19.1556 199.785 18.7438 199.848 18.3829C199.887 18.179 199.906 18.0142 199.906 17.8888C199.906 17.4416 199.695 17.1317 199.271 16.9591C199.036 16.8572 198.682 16.7984 198.212 16.7826V16.3355H202.989V16.7826C202.558 16.8454 202.228 16.9434 202.001 17.0768C201.593 17.3043 201.287 17.6965 201.083 18.2534L198.518 25.4191L197.517 28.1843L196.07 32.5613H195.706L194.729 29.7727L191.858 22.36L188.152 32.5613H187.787L186.057 27.5488L183.986 21.9129C183.131 19.5909 182.535 18.1672 182.198 17.6416C181.868 17.1083 181.351 16.8219 180.645 16.7826V16.3355H186.552ZM204.848 27.4311C205.256 28.5138 205.734 29.3766 206.284 30.0198C207.24 31.1415 208.429 31.7024 209.849 31.7024C210.618 31.7024 211.28 31.4593 211.837 30.973C212.402 30.4866 212.685 29.808 212.685 28.9372C212.685 28.1528 212.402 27.4704 211.837 26.8901C211.469 26.5213 210.692 25.9682 209.508 25.231L207.448 23.9484C206.829 23.5562 206.334 23.1601 205.966 22.7599C205.284 21.999 204.942 21.1597 204.942 20.2419C204.942 19.0261 205.346 18.0142 206.154 17.2063C206.962 16.3982 208.033 15.9944 209.366 15.9944C209.915 15.9944 210.574 16.1317 211.343 16.4062C212.12 16.673 212.563 16.8061 212.673 16.8061C212.971 16.8061 213.175 16.7357 213.285 16.5945C213.402 16.4532 213.493 16.2532 213.555 15.9944H214.049L214.579 21.1244H214.002C213.61 19.5791 212.979 18.5005 212.108 17.8888C211.245 17.2768 210.39 16.971 209.543 16.971C208.884 16.971 208.307 17.1671 207.813 17.5593C207.327 17.9437 207.084 18.4809 207.084 19.1711C207.084 19.7909 207.272 20.3204 207.649 20.7598C208.025 21.2069 208.609 21.6734 209.402 22.1598L211.52 23.4659C212.846 24.2817 213.779 25.031 214.32 25.7132C214.853 26.4037 215.12 27.2193 215.12 28.1608C215.12 29.4236 214.641 30.4786 213.685 31.3259C212.735 32.173 211.52 32.5967 210.037 32.5967C209.292 32.5967 208.511 32.4555 207.696 32.173C206.888 31.8907 206.425 31.7494 206.307 31.7494C206.025 31.7494 205.833 31.8358 205.73 32.0084C205.636 32.181 205.574 32.3652 205.542 32.5613H205.013L204.295 27.4311H204.848Z" fill="#070707"/>
</svg>
