<svg width="149" height="49" viewBox="0 0 149 49" fill="none" xmlns="http://www.w3.org/2000/svg">
<path d="M42.6848 12.4263C40.7874 12.4342 38.9 13.4326 37.9579 15.4206L37.5227 16.3383V23.921V31.5037L37.9579 32.4214C38.6333 33.8467 39.6788 34.7465 41.2456 35.2433C42.3685 35.5993 44.1585 35.4117 45.3004 34.821C46.041 34.438 47.0891 33.2973 47.4936 32.4343L47.8642 31.6416V23.921V16.2005L47.4591 15.3819C46.4868 13.4018 44.5823 12.4185 42.6848 12.4263ZM42.771 16.1832C42.8396 16.1836 42.9082 16.1905 42.9735 16.2048C43.1923 16.2529 43.5572 16.5065 43.7879 16.7692L44.2102 17.2473V23.8865V30.5257L43.8999 30.978C43.7293 31.2279 43.4089 31.4956 43.189 31.5726C42.9691 31.6496 42.7209 31.7116 42.6375 31.7104C42.3051 31.706 41.7893 31.3385 41.4912 30.8962L41.1767 30.4309V23.9383C41.1773 17.7407 41.187 17.423 41.4438 17.0018C41.7476 16.5036 42.2907 16.18 42.771 16.1832Z" fill="#070707"/>
<path d="M86.1571 35.1705C84.5587 34.5778 83.5088 33.5567 82.9037 32.0067C82.6909 31.4612 82.6694 30.54 82.6732 22.0803L82.6773 12.7551L84.5397 12.7168L86.402 12.6785L86.4041 21.6092C86.4056 28.5107 86.4456 30.6182 86.5797 30.8846C86.6752 31.0741 86.9727 31.3475 87.2409 31.4921C87.8435 31.8168 88.3484 31.717 88.9016 31.1638L89.2976 30.768V21.7232V12.6785L91.1613 12.7168L93.0251 12.7551L93.0247 22.0855C93.0242 31.2031 93.0176 31.4333 92.7369 32.1837C92.3312 33.2678 91.2964 34.356 90.1462 34.908C88.9471 35.4836 87.2944 35.5923 86.1571 35.1705Z" fill="#070707"/>
<path d="M24.4912 23.9233V12.6873H29.1104H33.7296V14.6173V16.5475H31.0408H28.352V19.1741V21.8007L30.0411 21.7772L31.7302 21.7538L31.7686 23.6314L31.807 25.5088H30.0795H28.352V30.3342V35.1595H26.4216H24.4912V23.9233Z" fill="#070707"/>
<path d="M53.0337 23.9233V12.6873H55.9004C59.022 12.6873 59.8763 12.8166 60.9628 13.4532C61.7823 13.9333 62.6389 14.8988 63.0747 15.8336C63.4272 16.5898 63.4412 16.7158 63.4861 19.5392C63.5234 21.8889 63.489 22.6316 63.3109 23.3271C63.0536 24.3313 62.5846 25.1872 61.9369 25.8349L61.4788 26.2928L62.6874 30.4313C63.3522 32.7075 63.9382 34.7025 63.9897 34.8646C64.0823 35.1566 64.0635 35.1595 62.0935 35.1595H60.1036L59.5245 32.9192C58.9475 30.6866 57.4739 25.0934 57.349 24.6609C57.3016 24.4969 57.3979 24.4081 57.6932 24.3433C58.2402 24.2231 59.2284 23.3609 59.4634 22.7988C59.5998 22.4725 59.6523 21.6521 59.6523 19.8502V17.3535L59.2493 16.9505C58.8746 16.576 58.7723 16.5475 57.8014 16.5475H56.7567V25.8535V35.1595H54.8953H53.0337V23.9233Z" fill="#070707"/>
<path d="M71.0953 35.0562C71.0945 34.9993 71.0791 30.827 71.0609 25.7845L71.0278 16.6164L69.3387 16.5777L67.6497 16.5391V14.6131V12.6873H72.8893H78.1289V14.6173V16.5475H76.4743H74.8197V25.8535V35.1595H72.9583C71.9344 35.1595 71.0962 35.113 71.0953 35.0562Z" fill="#070707"/>
<path d="M97.9846 23.9223V12.6863H99.8866H101.789L101.935 13.2032C102.016 13.4876 102.644 15.4883 103.331 17.6494C104.018 19.8105 104.776 22.2145 105.016 22.9917C105.256 23.769 105.51 24.4048 105.582 24.4048C105.661 24.4048 105.708 22.1419 105.703 18.58L105.694 12.7551L107.562 12.7168L109.429 12.6785V23.9185V35.1584H107.321H105.212L104.817 33.8832C104.6 33.1818 104.218 31.9654 103.967 31.1799C103.717 30.3946 103.158 28.611 102.724 27.2163C102.291 25.8216 101.885 24.6806 101.822 24.6806C101.759 24.6806 101.708 27.0381 101.708 29.9196V35.1584H99.8462H97.9846V23.9223Z" fill="#070707"/>
<path d="M114.393 23.9233V12.6873H119.012H123.632V14.6173V16.5475H120.871H118.11L118.147 19.1325L118.185 21.7175H119.943H121.701L121.701 23.6132L121.701 25.5088H119.909H118.116V28.4041V31.2993H120.874H123.632V33.2293V35.1595H119.012H114.393V23.9233Z" fill="#070707"/>
</svg>
