<svg width="188" height="49" viewBox="0 0 188 49" fill="none" xmlns="http://www.w3.org/2000/svg">
<path d="M26.7734 12.4263H36.5805C38.4485 12.4263 39.8496 12.8932 40.8874 13.6716C42.0289 14.6057 42.6516 15.9547 42.6516 17.6153C42.6516 19.5351 41.8732 20.7286 40.3166 21.4551V21.5588C42.3922 22.2334 43.5857 24.1014 43.5857 26.3326C43.5857 28.4601 42.7553 30.1206 41.4063 31.1583C40.2647 31.9885 38.8118 32.3518 36.84 32.3518H26.7734V12.4263ZM35.5946 20.2097C36.6324 20.2097 37.4108 19.6389 37.4108 18.4455C37.4108 17.3039 36.6324 16.7332 35.5427 16.7332H32.1699V20.1578H35.5946V20.2097ZM36.0616 27.9412C37.2551 27.9412 38.1372 27.2147 38.1372 25.9176C38.1372 24.5164 37.2032 23.8939 36.0616 23.8939H32.2218V27.9931H36.0616V27.9412Z" fill="#070707"/>
<path d="M44.4683 12.4263H49.6053V32.4037H44.4683V12.4263Z" fill="#070707"/>
<path d="M50.6426 25.2952C50.6426 20.7808 53.5485 17.7712 58.0629 17.7712C62.5771 17.7712 65.4311 20.8328 65.4311 25.2952C65.4311 29.8095 62.5771 32.8191 58.0629 32.8191C53.5485 32.8191 50.6426 29.8095 50.6426 25.2952ZM60.2941 25.2952C60.2941 22.8045 59.5158 21.2478 57.9591 21.2478C56.4023 21.2478 55.676 22.8045 55.676 25.2952C55.676 27.7858 56.4023 29.3945 57.9591 29.3945C59.5158 29.3425 60.2941 27.7858 60.2941 25.2952Z" fill="#070707"/>
<path d="M66.0015 25.2952C66.0015 20.7808 68.9072 17.7712 73.4216 17.7712C77.936 17.7712 80.738 20.7808 80.738 25.2952C80.738 29.8095 77.8841 32.8191 73.3697 32.8191C68.9072 32.8191 66.0015 29.8095 66.0015 25.2952ZM75.6528 25.2952C75.6528 22.8045 74.8745 21.2478 73.3178 21.2478C71.7611 21.2478 71.0347 22.8045 71.0347 25.2952C71.0347 27.7858 71.7611 29.3945 73.3178 29.3945C74.8745 29.3425 75.6528 27.7858 75.6528 25.2952Z" fill="#070707"/>
<path d="M81.7764 18.1339H86.5502V20.2614H86.654C87.5881 18.601 88.8852 17.7188 90.9608 17.7188C92.7769 17.7188 94.1261 18.601 94.8006 20.1576H94.9044C96.0459 18.2897 97.5507 17.7188 99.315 17.7188C102.636 17.7188 104.037 20.1576 104.037 23.4266V32.3516H99.0555V24.3087C99.0555 22.8558 98.5886 21.9218 97.3432 21.9218C96.0978 21.9218 95.4752 23.0635 95.4752 24.6201V32.3516H90.4938V24.3087C90.4938 22.8558 90.0267 21.9218 88.7815 21.9218C87.5361 21.9218 86.9135 23.0635 86.9135 24.6201V32.3516H81.7764V18.1339Z" fill="#070707"/>
<path d="M110.315 30.4837H110.263V32.3518H105.489V12.4263H110.471V19.587H110.574C111.508 18.3416 112.806 17.667 114.622 17.667C118.202 17.667 120.278 20.8843 120.278 25.191C120.278 30.0168 118.047 32.8189 114.31 32.8189C112.754 32.8189 111.145 32.0923 110.315 30.4837ZM115.141 25.1391C115.141 22.856 114.31 21.3512 112.806 21.3512C111.249 21.3512 110.315 22.856 110.315 25.1391C110.315 27.4224 111.301 28.9272 112.806 28.9272C114.31 28.9272 115.141 27.4743 115.141 25.1391Z" fill="#070707"/>
<path d="M120.849 25.2427C120.849 20.7803 123.807 17.7188 128.062 17.7188C130.189 17.7188 131.798 18.3934 133.043 19.5868C134.704 21.1954 135.43 23.686 135.378 26.592H125.83C126.038 28.3562 126.868 29.2902 128.373 29.2902C129.255 29.2902 130.034 28.875 130.345 27.941H135.17C134.34 31.21 131.798 32.8187 128.217 32.8187C123.807 32.7667 120.849 29.7571 120.849 25.2427ZM125.83 23.7379H130.397C130.293 22.0256 129.359 21.1435 128.165 21.1435C126.764 21.0916 125.986 22.0776 125.83 23.7379Z" fill="#070707"/>
<path d="M141.034 20.5729H141.138C142.176 18.6012 143.525 17.8228 145.237 17.8228C145.652 17.8228 145.912 17.8747 146.067 17.9785V22.3372H145.964C143.006 21.8183 141.294 23.2193 141.294 26.4364V32.4037H136.26V18.1341H141.034V20.5729Z" fill="#070707"/>
<path d="M146.586 32.4035H151.411C151.619 33.0262 152.242 33.597 153.435 33.597C155.044 33.597 155.614 32.611 155.614 31.1062V30.0685H155.511C154.732 31.0025 153.643 31.6771 152.086 31.6771C149.024 31.6771 146.326 29.3939 146.326 24.9314C146.326 20.8322 148.506 17.667 151.826 17.667C153.746 17.667 154.888 18.4453 155.666 19.6387H155.77V18.082H160.544V30.4318C160.544 32.7148 159.766 34.4791 158.572 35.5169C157.327 36.6066 155.562 37.0735 153.539 37.0735C149.699 37.1254 147.053 35.5688 146.586 32.4035ZM155.822 24.7239C155.822 22.9597 154.992 21.5068 153.539 21.5068C152.138 21.5068 151.256 22.7522 151.256 24.7239C151.256 26.6437 152.138 27.9929 153.539 27.9929C154.94 27.9929 155.822 26.592 155.822 24.7239Z" fill="#070707"/>
</svg>
