<svg width="201" height="49" viewBox="0 0 201 49" fill="none" xmlns="http://www.w3.org/2000/svg">
<path fill-rule="evenodd" clip-rule="evenodd" d="M31.829 23.1002H34.2433V23.5788H26.8607V23.1002H29.2997V8.10567H28.2053C26.7008 8.10567 26.0173 8.37867 25.3562 9.31291C24.6727 10.2694 24.3768 11.1587 24.2393 12.6406H23.6254V7.53484H37.5487V12.6406H36.8876C36.7956 11.2277 36.522 10.339 35.8161 9.2899C35.2471 8.44661 34.4262 8.10567 33.0816 8.10567H31.829V23.1002ZM49.5113 15.0551V8.01364H47.5056V7.53484H54.0916V8.01364H52.018V23.1002H54.0916V23.5788H47.5056V23.1002H49.5113V15.5804H42.6751V23.1002H44.6807V23.5788H38.0724V23.1002H40.1458V8.01364H38.0724V7.53484H44.6807V8.01364H42.6751V15.0551H49.5113ZM66.8756 12.458H66.2593C66.1466 10.247 65.9413 9.65548 65.1672 8.90241C64.5285 8.31092 63.7997 8.10567 62.3176 8.10567H59.0595V15.0551H60.131C62.2952 15.0551 62.9562 14.4169 62.9562 12.298V12.162C62.9562 12.0245 62.9562 11.8192 62.9562 11.637H63.5247V19.294H62.9562C62.9562 18.9288 62.9787 18.4505 62.9787 18.3375C62.9787 16.2397 62.3854 15.6937 60.131 15.6937H59.0595V23.008H62.2044C63.7077 23.008 64.5515 22.8257 65.235 22.3699C66.4875 21.5279 66.8301 20.7746 66.8979 18.7011C66.8979 18.565 66.8979 18.3828 66.9203 18.1098H67.5361L67.6511 23.5788H54.4568V23.1002H56.5302V8.01364H54.4568V7.53484H66.9676L66.8756 12.458ZM25.539 26.5219H23.4651V26.0431H30.1418V26.5219H28.0683V41.6069H30.1418V42.0852H23.4651V41.6069H25.539V26.5219ZM43.6092 37.5278V26.5219H41.2623V26.0431H46.3438V26.5219H44.2702V42.1984L43.9047 42.3133L33.5823 26.9773V41.6069H35.976V42.0852H30.8477V41.6069H32.9212V26.5219H30.8477V26.0431H35.976L43.6092 37.5278ZM48.7969 26.5219H46.7236V26.0431H55.2002C59.9175 26.0431 62.3777 28.7552 62.3777 33.9494C62.3777 37.2997 61.2851 39.9196 59.3248 41.1736C58.3677 41.8122 57.1137 42.0852 55.2456 42.0852H46.7236V41.6069H48.7969V26.5219ZM54.6069 41.5147C56.1797 41.5147 57.0684 41.1736 57.867 40.2848C58.9367 39.0551 59.5753 36.7068 59.5753 34.0191C59.5753 30.759 58.6862 28.117 57.2737 27.1829C56.6126 26.7496 55.9516 26.6121 54.5391 26.6121H51.3263V41.5147H54.6069ZM74.6151 30.9646H73.9993C73.8861 28.7552 73.6809 28.1619 72.9053 27.4106C72.2685 26.8173 71.5396 26.6121 70.0577 26.6121H66.7994V33.5631H67.8709C70.0347 33.5631 70.6957 32.9249 70.6957 30.8043V30.6688C70.6957 30.5313 70.6957 30.326 70.6957 30.145H71.2648V37.8008H70.6957C70.6957 37.4358 70.7187 36.9575 70.7187 36.8443C70.7187 34.7479 70.1255 34.2001 67.8709 34.2001H66.7994V41.5147H69.9445C71.4475 41.5147 72.291 41.3339 72.9745 40.8781C74.2271 40.0341 74.5696 39.2828 74.6376 37.2093C74.6376 37.072 74.6376 36.8892 74.6604 36.6162H75.2761L75.3892 42.0852H62.1967V41.6069H64.2702V26.5219H62.1967V26.0431H74.7057L74.6151 30.9646ZM80.6596 41.6069H82.8687V42.0852H76.0549V41.6069H78.1303V26.5219H76.0549V26.0431H83.1889C86.3563 26.0431 87.9047 27.4559 87.9047 30.3727C87.9047 33.4486 86.4695 34.7704 83.1889 34.7704H80.6596V41.6069ZM82.0027 34.1546C84.5788 34.1546 85.2848 33.3809 85.2848 30.5537C85.2848 28.8005 84.8743 27.5008 84.1683 27.0226C83.69 26.6798 83.302 26.6121 82.0494 26.6121H80.6596V34.1546H82.0027ZM100.53 30.9646H99.9144C99.7994 28.7552 99.5961 28.1619 98.8204 27.4106C98.1818 26.8173 97.453 26.6121 95.9727 26.6121H92.7146V33.5631H93.7844C95.9497 33.5631 96.611 32.9249 96.611 30.8043V30.6688C96.611 30.5313 96.611 30.326 96.611 30.145H97.18V37.8008H96.611C96.611 37.4358 96.6338 36.9575 96.6338 36.8443C96.6338 34.7479 96.0405 34.2001 93.7844 34.2001H92.7146V41.5147H95.8577C97.3626 41.5147 98.2061 41.3339 98.8883 40.8781C100.142 40.0341 100.483 39.2828 100.553 37.2093C100.553 37.072 100.553 36.8892 100.575 36.6162H101.191L101.304 42.0852H88.1099V41.6069H90.1835V26.5219H88.1099V26.0431H100.621L100.53 30.9646ZM114.746 37.5278V26.5219H112.399V26.0431H117.48V26.5219H115.407V42.1984L115.042 42.3133L104.719 26.9773V41.6069H107.111V42.0852H101.985V41.6069H104.058V26.5219H101.985V26.0431H107.111L114.746 37.5278ZM119.917 26.5219H117.844V26.0431H126.321C131.038 26.0431 133.5 28.7552 133.5 33.9494C133.5 37.2997 132.405 39.9196 130.447 41.1736C129.489 41.8122 128.236 42.0852 126.368 42.0852H117.844V41.6069H119.917V26.5219ZM125.729 41.5147C127.302 41.5147 128.191 41.1736 128.987 40.2848C130.059 39.0551 130.698 36.7068 130.698 34.0191C130.698 30.759 129.808 28.117 128.396 27.1829C127.735 26.7496 127.074 26.6121 125.66 26.6121H122.449V41.5147H125.729ZM146.095 30.9646H145.479C145.366 28.7552 145.16 28.1619 144.386 27.4106C143.748 26.8173 143.019 26.6121 141.537 26.6121H138.279V33.5631H139.35C141.514 33.5631 142.175 32.9249 142.175 30.8063V30.6688C142.175 30.5313 142.175 30.326 142.175 30.145H142.746V37.8008H142.175C142.175 37.437 142.198 36.9575 142.198 36.8443C142.198 34.7479 141.605 34.2001 139.35 34.2001H138.279V41.5147H141.424C142.927 41.5147 143.771 41.3339 144.454 40.8781C145.708 40.0341 146.049 39.2828 146.117 37.2093C146.117 37.072 146.117 36.8892 146.139 36.6162H146.756L146.87 42.0852H133.676V41.6069H135.749V26.5219H133.676V26.0431H146.187L146.095 30.9646ZM160.315 37.5278V26.5219H157.967V26.0431H163.05V26.5219H160.975V42.1984L160.611 42.3133L150.288 26.9773V41.6069H152.68V42.0852H147.554V41.6069H149.627V26.5219H147.554V26.0431H152.68L160.315 37.5278ZM171.799 41.6069H174.214V42.0852H166.832V41.6069H169.27V26.6121H168.176C166.671 26.6121 165.988 26.8851 165.327 27.8191C164.644 28.7776 164.347 29.6669 164.212 31.147H163.596V26.0431H177.519V31.147H176.858C176.767 29.7347 176.493 28.8459 175.787 27.7969C175.218 26.9548 174.397 26.6121 173.052 26.6121H171.799V41.6069ZM85.8263 14.9271C85.8908 14.9597 85.8101 15.1344 85.6471 15.0907C85.5258 15.0582 85.4936 14.9322 85.5321 14.8516C85.5486 14.8159 85.6031 14.8011 85.6081 14.8351C85.6146 14.8676 85.6081 14.9162 85.6581 14.9322C85.7066 14.9482 85.7503 14.9386 85.7713 14.9271C85.7941 14.9162 85.8053 14.9162 85.8263 14.9271ZM80.8584 19.519C80.8179 19.5803 80.7841 19.5708 80.7809 19.496L80.7662 19.1148C80.7644 19.0406 80.8048 19.0228 80.8566 19.076L80.9389 19.1583C80.9907 19.2101 81.0004 19.3023 80.9601 19.3638L80.8584 19.519ZM84.603 16.1719C84.5513 16.2302 84.5092 16.361 84.2878 16.2347C84.2878 16.2347 84.0985 16.3917 84.0213 16.5177C83.942 16.6437 83.8787 16.6599 83.7835 16.597C83.7835 16.597 83.6108 16.7857 83.5315 17.0217C83.4522 17.2595 83.2955 17.1642 83.2484 17.1642C83.2484 17.1642 82.9479 17.4955 82.7119 17.6682C82.7119 17.6682 82.8072 18.2678 82.8704 18.441C82.8704 18.441 82.8704 18.6137 82.759 18.5203L82.9964 19.1181C82.9964 19.1181 83.0432 19.2133 82.9964 19.3073C82.9964 19.3073 83.3262 19.6078 83.7835 19.7646C83.7835 19.7646 84.0213 19.7646 84.1147 19.6706C84.2103 19.5753 84.304 19.4653 84.3992 19.496C84.493 19.5286 84.5252 19.5286 84.5883 19.4653C84.6498 19.4026 84.729 19.3073 84.855 19.3393C84.981 19.37 85.0928 19.37 85.1555 19.2926C85.2188 19.2133 85.408 19.0713 85.5175 19.2293C85.6273 19.3866 85.6956 19.3443 85.6956 19.3443C85.6956 19.3443 87.0839 19.0956 87.3472 19.0517C87.4424 19.0356 87.5166 19.0485 87.5991 19.0988C87.6899 19.1553 89.1297 19.9633 89.319 20.0733C89.5082 20.1833 89.4757 20.4351 89.3657 20.5306C89.2557 20.6244 88.7109 21.0913 88.7109 21.0913C88.7109 21.0913 88.5851 21.2029 88.4266 21.1866C88.2699 21.1704 86.2628 21.3322 85.5225 21.3954C85.2706 21.4161 84.9701 21.4907 84.7661 21.5699C84.561 21.6474 80.8048 23.4524 80.5061 23.5622C80.2068 23.6722 80.2376 23.7675 79.7029 23.6255C79.166 23.4832 78.0478 23.1212 77.7958 22.9792C77.5434 22.8385 77.6213 22.5234 77.9058 22.428C78.1903 22.3327 79.0093 22.0496 79.0093 22.0496C79.0093 22.0496 78.62 21.6826 78.3988 21.5732C78.1788 21.4632 78.106 21.3821 78.4308 21.3047C78.9933 21.1704 80.0145 20.7554 80.7516 20.5741C80.7516 20.5741 80.2733 20.2671 80.1909 20.1118C80.1909 20.1118 80.0809 20.1603 80.0483 20.2493C79.9984 20.3898 79.9389 20.3641 79.9223 20.2216C79.9063 20.0798 79.8596 19.7013 79.8596 19.7013C79.8596 19.7013 79.6544 19.7805 79.6544 19.5593C79.6544 19.3393 79.6704 18.819 79.6704 18.819C79.6704 18.819 79.4976 19.1795 79.4976 19.6386C79.4976 19.7805 79.494 19.8744 79.3796 19.8341C79.2049 19.7708 79.0868 19.7013 79.0868 19.7013C79.0868 19.7013 79.0771 19.8988 78.9301 19.8418C78.712 19.7563 78.2997 19.6226 78.2045 19.6226C78.2045 19.6226 78.1285 19.8258 78.0235 19.8098C77.8668 19.7856 77.07 19.7013 77.07 19.7013C77.07 19.7013 76.9922 19.7486 76.944 19.8438C76.8969 19.9373 76.8923 19.9793 76.7825 19.9308C76.6707 19.8841 76.2037 19.6386 76.2037 19.6386C76.2037 19.6386 75.6367 20.1118 75.4782 20.2689C75.3214 20.427 75.2889 20.3641 75.2889 20.2216C75.2889 20.0798 75.2889 19.8278 75.2889 19.8278C75.2889 19.8278 74.7896 20.3253 74.5957 20.5841C74.4551 20.7728 74.4699 20.6308 74.4551 20.4434C74.4391 20.2525 74.3886 20.1494 74.4048 20.0701C74.4048 20.0701 74.5166 19.9373 74.6279 19.8438C74.7379 19.7486 75.5734 18.7883 75.6527 18.709C75.7301 18.6301 75.7934 18.599 75.8561 18.567C75.9194 18.5363 78.5828 17.3062 78.5828 17.3062L78.379 16.6923C78.379 16.6923 78.0638 16.881 77.9685 16.9282C77.875 16.975 77.7925 17.046 77.7455 16.9361C77.6987 16.8265 77.5274 16.4547 77.5274 16.4547C77.5274 16.4547 77.2285 16.597 77.1493 16.6599C77.0702 16.723 77.0023 16.7584 76.9392 16.6648C76.8759 16.5695 76.6917 16.1247 76.6917 16.1247C76.6917 16.1247 76.5657 16.2187 76.4722 16.2512C76.3765 16.2819 76.3285 16.34 76.2977 16.2622C76.2652 16.1829 76.1085 15.7142 76.1085 15.7142C76.1085 15.7142 75.9825 15.7614 75.8887 15.81C75.7934 15.8567 75.7607 15.9099 75.698 15.8146C75.6349 15.7212 75.4474 15.1938 75.4474 15.1938C75.4474 15.1938 75.1647 15.3619 75.1647 15.2052C75.1647 15.0468 75.2114 14.5492 75.2114 14.5492C75.2114 14.5492 74.9271 14.6234 74.8477 14.6719C74.7704 14.7188 74.7219 14.6428 74.7219 14.5492C74.7219 14.4539 74.7538 13.9801 74.7538 13.9801C74.7538 13.9801 74.2289 14.0028 74.0964 14.0723C73.8299 14.2149 73.9494 14.0596 74.0914 13.9028C74.2339 13.7443 74.2806 13.6023 74.3292 13.4131C74.3292 13.4131 73.5403 13.6343 73.1151 13.4923C72.6886 13.3498 72.9648 13.332 73.1381 13.332C73.3126 13.332 73.6356 13.2238 73.7601 13.004C73.7601 13.004 73.2686 13.119 72.1535 12.8153C71.9808 12.768 71.7998 12.6101 72.1151 12.6568C72.4303 12.7035 73.0358 12.6568 73.1783 12.5468C73.1783 12.5468 72.2313 12.49 71.3345 12.0425C71.2085 11.9796 71.0352 11.7937 71.2872 11.8728C71.5396 11.9521 71.8383 12.0117 72.3268 11.9956C72.3268 11.9956 72.1843 11.7905 71.617 11.6805C71.617 11.6805 71.4443 11.6483 71.302 11.5545C71.1598 11.4592 70.72 11.16 70.6247 11.0807C70.5307 11.0033 70.4407 10.8512 70.644 10.9465C70.8492 11.0405 71.3345 11.2393 71.7755 11.27C71.7755 11.27 71.4765 10.9709 71.1598 10.892C71.1598 10.892 71.05 10.8287 70.8767 10.6722C70.704 10.5137 70.2302 10.0092 70.1044 9.85264C69.9784 9.69412 69.938 9.53092 70.1107 9.67345C70.284 9.81364 70.7815 10.0257 71.0033 10.2144C71.0033 10.2144 70.688 9.78973 70.5617 9.66338C70.4355 9.53739 70.3257 9.3954 70.2789 9.28541C70.2302 9.17362 70.0577 8.76491 69.9784 8.57584C69.901 8.38658 69.9087 8.22986 70.0347 8.38658C70.1612 8.5451 71.1273 9.60191 71.8548 9.82047C71.7285 9.72665 71.1292 8.87491 71.0352 8.74892C70.94 8.62293 70.8767 8.51311 70.8447 8.38658C70.814 8.26059 70.72 7.75663 70.6715 7.55138C70.6247 7.34613 70.6927 7.25033 70.7865 7.43959C70.88 7.62884 71.4278 8.43385 71.491 8.57584C71.5539 8.71818 71.6657 8.81164 71.7915 8.92164C71.9177 9.03343 72.3588 9.34814 72.4528 9.42614C72.2635 9.19015 71.869 8.33985 71.7915 8.21386C71.7123 8.08787 71.6963 7.83409 71.6657 7.7241C71.6332 7.6141 71.5539 7.12632 71.5539 6.9518C71.5539 6.77854 71.5946 6.65111 71.6575 6.84001C71.7206 7.02908 72.1375 7.85009 72.2168 8.02461C72.296 8.19786 72.4848 8.33985 72.5948 8.43385C72.7046 8.52911 73.7456 9.37923 73.7456 9.37923C73.7456 9.37923 72.8631 8.03934 72.8146 7.92935C72.7678 7.81935 72.658 7.6141 72.658 7.45558C72.658 7.29904 72.6418 6.55909 72.6418 6.55909C72.6418 6.50643 72.646 6.46114 72.6539 6.42627H72.7468C72.7775 6.58479 73.1458 7.50429 73.4143 7.75663C73.6828 8.00861 74.6119 8.93763 74.7538 9.06416C74.8946 9.19015 75.0529 9.23688 75.2114 9.29997C75.3682 9.36287 77.196 10.0884 77.3547 10.1517C77.5113 10.2144 77.7792 10.4197 77.8585 10.5768C77.9378 10.7349 79.3713 12.9248 79.3713 12.9248C79.3713 12.9248 79.7029 13.5243 79.9856 13.7283C80.2701 13.9336 80.9312 14.5166 81.0264 14.5639C81.1199 14.6106 81.1671 14.5006 81.0732 14.4214C80.9793 14.3439 80.7886 14.1228 80.7114 14.0596C80.6321 13.9963 80.6646 13.8076 80.7741 13.8703C80.8841 13.9336 81.0264 13.9174 81.0264 13.9174C81.0264 13.9174 81.2317 13.8076 80.9633 13.7769C80.6952 13.7443 80.5221 13.7136 80.4107 13.7283C80.3008 13.7443 80.3328 13.5391 80.5996 13.3824C80.5996 13.3824 80.4899 13.3664 80.3636 13.3824C80.2376 13.3985 79.9223 13.3193 80.3494 13.2238C80.7741 13.13 81.3251 13.004 81.5451 12.9413C81.5451 12.9413 81.7829 12.894 81.972 12.9413C82.1609 12.9878 83.3422 13.1933 83.3422 13.1933L82.0814 12.7828C82.0814 12.7828 80.9761 12.8326 80.8666 12.8166C80.7548 12.802 80.8048 12.736 81.0104 12.6888C81.2157 12.642 81.8295 12.5161 81.8295 12.5161C81.8295 12.5161 82.0814 12.4835 82.208 12.5468C82.334 12.6101 83.2795 12.9718 83.4055 13.0348C83.5315 13.0978 83.6575 13.0511 83.4682 12.9413C83.2795 12.8313 82.3807 12.4675 82.3807 12.4675C82.3807 12.4675 82.098 12.4048 81.9394 12.3901C81.7829 12.3737 81.2624 12.2526 81.1849 12.2366C81.1057 12.222 81.1199 12.1523 81.2944 12.1523C81.4677 12.1523 82.0814 12.1377 82.0814 12.1377C82.0814 12.1377 82.3174 12.1055 82.5067 12.2155C82.6959 12.3268 83.5008 12.6888 83.5008 12.6888C83.5008 12.6888 83.6268 12.736 83.7835 12.736C83.942 12.736 84.0358 12.7053 84.0358 12.7053C84.0358 12.7053 84.1455 12.6568 83.9567 12.5793L83.0903 12.1377C83.0903 12.1377 82.7752 11.9956 82.5392 11.9325C82.3014 11.8697 81.8974 11.7533 81.7394 11.7066C81.5821 11.6593 81.5936 11.6012 81.8295 11.6012C82.0654 11.6012 82.5067 11.6172 82.5067 11.6172C82.5067 11.6172 82.7445 11.632 82.9172 11.7436C83.0903 11.8536 83.8935 12.2475 84.052 12.3415C84.2103 12.4368 84.32 12.2948 84.1455 12.1683C83.9727 12.0425 82.4031 11.3102 82.263 11.2168C82.1204 11.1212 82.334 11.144 82.5067 11.144C82.6812 11.144 82.8072 11.176 82.9337 11.176C83.0597 11.176 83.263 11.2233 83.3748 11.3167C83.4848 11.412 84.0047 11.7745 84.0047 11.7745C84.0047 11.7745 84.1147 11.8372 84.2572 11.8536C84.3992 11.8697 84.477 11.8372 84.477 11.8372C84.477 11.8372 84.6658 11.823 84.4605 11.7112C84.2572 11.6012 83.412 10.8787 82.6537 10.7092C82.5131 10.6785 82.4292 10.5929 82.7445 10.6089C83.0597 10.6235 83.4215 10.6864 83.4215 10.6864C83.4215 10.6864 83.6735 10.7657 83.7995 10.908C83.926 11.0502 84.5252 11.522 84.619 11.5852C84.7143 11.6483 84.7776 11.5385 84.6823 11.412C84.5885 11.286 83.7885 10.378 83.0949 10.0807C82.9849 10.0336 82.9172 9.91572 83.1855 9.99319C83.4522 10.0724 83.816 10.1824 83.816 10.1824C83.816 10.1824 84.1147 10.341 84.2878 10.5462C84.4605 10.7497 84.8083 11.3025 84.855 11.396C84.9035 11.4912 85.0603 11.4752 84.981 11.3333C84.9035 11.1925 84.1958 9.8494 83.4395 9.3449C83.3442 9.28217 83.263 9.14288 83.5635 9.29997C83.8627 9.45813 84.3831 9.83646 84.3831 9.83646C84.3831 9.83646 84.5398 9.92992 84.603 10.0724C84.6658 10.2144 84.9036 10.7982 84.9343 10.9547C84.9668 11.1133 85.0763 11.0807 85.0295 10.892C84.981 10.7028 84.8083 10.1984 84.7776 10.0724C84.745 9.94646 84.619 9.80393 84.477 9.64721C84.3365 9.48887 83.9337 8.76995 83.8545 8.66013C83.777 8.55014 83.7687 8.41732 83.942 8.62293C84.1147 8.82818 84.635 9.36287 84.745 9.47467C84.855 9.58448 84.9503 9.74121 84.981 9.88319C85.0135 10.0257 85.1703 10.9547 85.1863 11.0807C85.2026 11.2067 85.2655 11.2233 85.2655 11.018C85.2655 10.8142 85.1555 10.0724 85.1235 9.86719C85.0928 9.66338 84.9668 9.44213 84.8876 9.29997C84.8083 9.15942 84.3103 8.22213 84.2475 8.11213C84.1843 8.00214 84.2718 8.03934 84.3992 8.16533C84.5252 8.29132 84.9976 8.92164 85.107 9.04763C85.2188 9.17362 85.2963 9.4114 85.3123 9.66338C85.3288 9.91572 85.3915 11.0973 85.3915 11.2393C85.3915 11.3812 85.5015 11.4285 85.5015 11.176C85.5015 10.924 85.4853 9.83646 85.4708 9.61521C85.4546 9.3954 85.3915 9.14289 85.2801 8.93763C85.1703 8.73238 84.6758 7.71906 84.566 7.48308C84.456 7.24727 84.6498 7.42503 84.745 7.55138C84.8403 7.67737 85.4386 8.54367 85.5015 8.62293C85.5646 8.70183 85.6439 8.85891 85.6439 8.9849C85.6439 9.11089 85.6746 10.6864 85.6906 10.8449C85.7066 11.0033 85.8491 11.0807 85.8326 10.8609C85.8166 10.6397 85.7373 9.08016 85.7373 8.8909C85.7373 8.70183 85.6439 8.51311 85.5808 8.37059C85.5175 8.2286 85.1523 7.25536 85.1056 7.06629C85.057 6.87757 85.1395 6.90453 85.2655 7.09379C85.3915 7.28286 85.8006 7.92935 85.8958 8.08787C85.9898 8.24459 86.0058 8.43385 86.0218 8.59183C86.0378 8.74892 86.0378 10.0724 86.0378 10.231C86.0378 10.3877 86.1478 10.5137 86.1478 10.2144C86.1478 9.91572 86.2418 8.82818 86.2271 8.59183C86.2111 8.35441 86.1478 8.1346 86.0851 7.91335C86.0218 7.69336 85.894 6.90453 85.8313 6.73181C85.7681 6.55909 85.8426 6.52656 85.9215 6.71581C86.0008 6.90453 86.3211 7.6301 86.3678 7.77262C86.4145 7.91335 86.4145 8.07187 86.4309 8.26059C86.4469 8.44985 86.3211 10.0884 86.3211 10.2452C86.3211 10.4037 86.4309 10.4037 86.4309 10.231C86.4309 10.0565 86.4631 9.74121 86.4794 9.53739C86.4938 9.33214 86.5731 9.4114 86.6056 9.52139C86.6361 9.63121 86.6521 9.7572 86.7154 9.67794C86.7783 9.60066 86.9349 9.37923 86.9207 9.25288C86.9041 9.12689 87.0934 9.28541 87.0934 9.28541C87.0934 9.28541 87.1886 9.29997 87.2359 9.14288C87.2826 8.9849 87.2986 8.95417 87.3294 8.81164C87.3619 8.66966 87.2666 8.52911 87.1886 8.68565C87.1094 8.84417 86.9207 9.17362 86.825 9.25288C86.7314 9.33214 86.6361 9.52139 86.6829 9.14288C86.7314 8.76491 86.6523 7.14088 86.5731 6.79508C86.4938 6.4473 86.6119 6.55909 86.6733 6.72354C86.7539 6.94353 87.1241 8.07188 87.1566 8.19787C87.1886 8.32386 87.1886 8.32386 87.3146 8.24459C87.4392 8.16533 88.6387 7.40903 88.8114 7.26686C88.9845 7.12632 89.0005 7.28286 88.8907 7.40903C88.7792 7.53484 87.4086 9.14288 87.0774 9.72665C86.7461 10.3084 86.2738 11.8697 86.2111 12.075C86.1478 12.2783 86.1786 12.3737 85.9266 12.4528C85.6746 12.5308 84.5092 12.9878 84.5092 12.9878C84.5092 12.9878 84.3365 13.0348 84.2878 13.114C84.2411 13.1933 84.0358 13.4923 84.0358 13.4923C84.0358 13.4923 83.9727 13.6183 84.1147 13.6343C84.2572 13.6505 85.1235 13.8543 85.3123 13.9801C85.5015 14.1063 86.0058 14.5006 86.1951 14.5639C86.2903 14.5959 86.3676 14.7691 86.3531 14.9271C86.3531 14.9271 86.5423 15.1311 86.6683 15.2896C86.7943 15.4462 86.8301 15.5414 86.8606 15.6514C86.8932 15.7614 86.8996 15.8969 86.8089 15.9987C86.6248 16.2072 86.3531 16.2654 86.3531 16.2654C86.3531 16.2654 86.4016 15.9617 86.3049 15.8242C86.2156 15.6967 86.114 15.6836 86.0448 15.7212C85.9508 15.7711 85.9591 15.8407 86.0058 15.9194C86.0526 15.9987 86.1478 16.1554 86.1478 16.1554C86.1478 16.1554 86.2156 16.2557 86.1644 16.3285C86.1415 16.3594 86.1061 16.3867 86.0928 16.395C86.0269 16.4385 85.8216 16.4514 85.6971 16.3722C85.5986 16.3092 85.5468 16.2397 85.5046 16.1829C85.4643 16.1247 85.348 16.1797 85.348 16.1797C85.0863 16.2187 84.8243 16.1847 84.713 16.1412C84.713 16.1412 84.658 16.1119 84.603 16.1719ZM79.0368 22.3374C79.0368 22.3374 79.6865 22.68 79.8158 22.7509C79.9466 22.8225 80.0048 22.7267 79.9001 22.6332C79.7931 22.538 79.1436 22.1372 79.1436 22.1372L78.9773 22.2439C78.9058 22.2777 79.0368 22.3374 79.0368 22.3374ZM79.8158 23.2362C79.7575 23.3185 79.6865 23.2472 79.6865 23.2472C79.6865 23.2472 78.8948 22.9517 78.7171 22.8577C78.5408 22.7624 78.6455 22.74 78.7766 22.7752C78.9058 22.811 79.1775 22.8334 79.3796 22.8692C79.5798 22.9044 79.4863 22.7867 79.402 22.7267C79.3195 22.6686 78.9883 22.5507 78.8477 22.5022C78.7056 22.4555 78.505 22.5265 78.292 22.5622C78.0785 22.5976 78.1028 22.74 78.2562 22.8334C78.4097 22.9289 79.2613 23.2714 79.402 23.3185C79.5444 23.3654 79.7803 23.4122 79.9939 23.4249C80.2068 23.4364 80.1583 23.3185 80.1716 23.212C80.1826 23.1052 80.1826 22.8577 80.1826 22.8577C80.1826 22.8577 79.8756 23.1537 79.8158 23.2362ZM86.1158 15.4705C86.1158 15.4705 86.2776 15.4802 86.4113 15.6239C86.5134 15.7321 86.5423 15.9552 86.5423 15.9552C86.6361 15.8842 86.7086 15.7825 86.6604 15.6593C86.5341 15.3491 86.1043 14.9744 86.1043 14.9744L86.1158 15.4705ZM85.8326 16.2154C85.9009 16.2654 85.9866 16.2512 85.9508 16.1669C85.9151 16.0844 85.8121 15.897 85.8121 15.897C85.8121 15.897 85.7763 15.8614 85.7278 15.8614C85.6811 15.8614 85.5371 15.8599 85.5371 15.8599C85.5371 15.8599 85.7021 16.1202 85.8326 16.2154ZM85.7973 15.4591C85.7973 15.4591 85.7858 15.3637 85.6306 15.3991C85.4772 15.4349 85.348 15.5059 85.348 15.5059C85.348 15.5059 85.2655 15.5529 85.3123 15.6354C85.3593 15.7194 85.4303 15.7417 85.4661 15.6707C85.5015 15.5997 85.6196 15.5287 85.6439 15.5772C85.6663 15.6239 85.7858 15.7064 85.8198 15.6482C85.857 15.5882 85.8326 15.5059 85.7973 15.4591ZM85.4835 14.7789C85.4835 14.7789 85.4483 14.7724 85.4158 14.8919C85.3753 15.0339 85.4629 15.2442 85.6856 15.2488C85.862 15.2539 85.9458 15.1261 85.9591 15.0244C85.9719 14.9259 85.9348 14.8094 85.8665 14.8241C85.7456 14.8466 85.4835 14.7789 85.4835 14.7789ZM84.97 14.0756C84.97 14.0756 84.8876 14.0046 84.8518 14.0646C84.816 14.1228 84.7693 14.3247 84.9585 14.3829C85.1478 14.4426 85.3123 14.4891 85.3123 14.4891C85.3123 14.4891 85.4904 14.5006 85.3365 14.3829C85.2366 14.3069 85.041 14.1356 84.97 14.0756ZM83.635 14.3471C83.5283 14.3004 83.433 14.3164 83.504 14.3939C83.6575 14.5607 83.635 14.6671 83.635 14.6671C83.635 14.6671 83.635 14.7366 83.7995 14.7366C83.9645 14.7366 84.1535 14.7251 84.307 14.7251C84.4605 14.7251 84.4605 14.6671 84.3313 14.6189C84.2022 14.5716 83.635 14.3471 83.635 14.3471ZM84.123 15.0569C84.013 15.0211 83.9195 15.0486 83.9982 15.1182C84.118 15.2213 84.1568 15.3734 84.1568 15.3734C84.1568 15.3734 84.1632 15.4444 84.3282 15.4266C84.493 15.4106 84.6805 15.3784 84.8326 15.3619C84.986 15.3459 84.9796 15.2877 84.8455 15.2539C84.7111 15.2199 84.123 15.0569 84.123 15.0569ZM83.341 13.7494C83.2387 13.6944 83.142 13.7053 83.208 13.7878C83.3262 13.9336 83.3198 14.0677 83.3198 14.0677C83.3198 14.0677 83.3147 14.1369 83.4812 14.1484C83.646 14.1599 83.8352 14.1599 83.9887 14.1694C84.1422 14.1809 84.1454 14.1209 84.0195 14.0659C83.892 14.0096 83.341 13.7494 83.341 13.7494ZM82.3142 14.6201C82.2094 14.5704 82.1192 14.5813 82.1837 14.6638C82.2867 14.7966 82.3065 14.9386 82.3065 14.9386C82.3065 14.9386 82.3047 15.0096 82.4695 15.0147C82.6345 15.0193 82.8237 15.0129 82.9772 15.0161C83.132 15.0211 83.132 14.9611 83.0047 14.9111C82.8755 14.8594 82.3142 14.6201 82.3142 14.6201ZM82.8557 15.2652C82.7427 15.2379 82.6555 15.2666 82.7362 15.3362C82.8654 15.4462 82.9127 15.5804 82.9127 15.5804C82.9127 15.5804 82.9236 15.6496 83.0872 15.6207C83.2502 15.5914 83.4343 15.5467 83.5847 15.5192C83.7367 15.4917 83.727 15.4334 83.5897 15.4106C83.454 15.3862 82.8557 15.2652 82.8557 15.2652ZM83.7285 15.6112C83.6382 15.5882 83.5718 15.6079 83.6332 15.6662C83.74 15.7659 83.7738 15.8614 83.7738 15.8614C83.7738 15.8614 83.7853 15.9182 83.9145 15.8939C84.0455 15.8714 84.1925 15.8339 84.3135 15.8132C84.4332 15.7904 84.4253 15.7449 84.3167 15.7257C84.2067 15.7064 83.7285 15.6112 83.7285 15.6112ZM82.497 14.1841C82.41 14.1369 82.3289 14.1451 82.3839 14.2161C82.4759 14.3358 82.4759 14.4553 82.4759 14.4553C82.4759 14.4553 82.4714 14.5154 82.612 14.5249C82.7522 14.5364 82.9125 14.5378 83.0432 14.5492C83.1742 14.5589 83.1774 14.5089 83.0707 14.4604C82.9625 14.4118 82.497 14.1841 82.497 14.1841ZM81.7324 13.5908C81.6244 13.5473 81.5289 13.5684 81.6032 13.6426C81.7196 13.7571 81.7439 13.9093 81.7439 13.9093C81.7439 13.9093 81.7471 13.9801 81.9121 13.9738C82.0784 13.9674 82.2662 13.9496 82.4197 13.9431C82.5732 13.9366 82.5712 13.8786 82.4389 13.8363C82.3079 13.7929 81.7324 13.5908 81.7324 13.5908ZM81.2432 14.0919C81.1506 14.0576 81.0731 14.0756 81.1364 14.1401C81.2592 14.2646 81.2624 14.3633 81.2624 14.3633C81.2624 14.3633 81.2669 14.4233 81.4076 14.4136C81.5484 14.4021 81.7067 14.3811 81.8377 14.3714C81.9684 14.3619 81.9639 14.3116 81.8507 14.2794C81.7374 14.2469 81.2432 14.0919 81.2432 14.0919ZM81.1686 17.2237C81.0616 17.269 81.0119 17.379 81.1134 17.3517C81.4242 17.2677 81.3999 17.4437 81.3999 17.4437C81.3999 17.4437 81.4517 17.4935 81.5661 17.3727C81.6794 17.253 81.8007 17.1074 81.9069 16.996C82.0124 16.8847 81.9702 16.8439 81.8456 16.9054C81.7229 16.9667 81.1686 17.2237 81.1686 17.2237ZM83.171 16.1284C83.0565 16.1477 82.9887 16.2154 83.0903 16.2397C83.2795 16.285 83.3505 16.3917 83.3505 16.3917C83.3505 16.3917 83.4023 16.3675 83.5392 16.2737C83.6767 16.1815 83.6025 16.2187 83.7285 16.1317C83.8563 16.0459 83.816 15.9794 83.6818 16.0134C83.5475 16.0474 83.171 16.1284 83.171 16.1284ZM82.5002 16.8407C82.3922 16.8847 82.3372 16.9622 82.442 16.9667C82.6377 16.975 82.7285 17.0639 82.7285 17.0639C82.7285 17.0639 82.7732 17.03 82.8897 16.9119C83.0047 16.794 82.94 16.8457 83.0468 16.7359C83.155 16.6259 83.1014 16.5695 82.9772 16.6292C82.8527 16.689 82.5002 16.8407 82.5002 16.8407ZM82.4759 15.9295C82.3839 15.9341 82.3212 15.9794 82.3999 16.0102C82.5342 16.0619 82.5924 16.1572 82.5924 16.1572C82.5924 16.1572 82.6185 16.2072 82.7362 16.1477C82.8545 16.0876 82.9267 16.0474 83.0367 15.9909C83.1467 15.936 83.1257 15.8939 83.0157 15.9067C82.906 15.9194 82.4759 15.9295 82.4759 15.9295ZM82.1334 15.6951C82.098 15.8599 82.2157 15.7659 82.2157 15.7659C82.2157 15.7659 82.3224 15.6593 82.4164 15.5414C82.5117 15.4234 82.4292 15.3752 82.3934 15.317C82.3582 15.2569 82.334 15.2213 82.3097 15.2814C82.3097 15.2814 82.169 15.5287 82.1334 15.6951ZM84.4088 16.0326L84.4542 15.9827C84.5045 15.9277 84.4848 15.8969 84.412 15.9117L84.2847 15.9392C84.2136 15.9539 84.1907 16.0037 84.2375 16.0492C84.2828 16.0941 84.3608 16.0876 84.4088 16.0326ZM83.4682 16.6759C83.4894 16.6047 83.4265 16.6002 83.373 16.652L83.1517 16.867C83.0982 16.9167 83.1145 16.9667 83.1889 16.9768L83.2067 16.9782C83.2795 16.9879 83.3552 16.9379 83.3762 16.867L83.4682 16.6759ZM81.7989 20.2511L82.334 19.9083L82.1447 19.6706C82.1447 19.6706 81.9912 19.7838 81.9556 19.8551C81.9202 19.9261 81.862 19.9373 81.8135 19.8196C81.7667 19.7013 81.4594 19.0388 81.4594 19.0388L81.3526 19.1341C81.3526 19.1341 81.2592 19.1341 81.2592 19.0517C81.2592 18.9692 81.2234 18.8386 81.2234 18.8386L81.1281 18.803L81.1734 19.7888L81.7989 20.2511ZM81.7049 18.588C81.6679 18.5248 81.6454 18.5312 81.6569 18.604L81.7356 19.1553C81.7457 19.2281 81.7957 19.2441 81.8474 19.1909L81.8877 19.1488C81.9376 19.0956 81.9492 19 81.9101 18.9353L81.7049 18.588ZM82.153 18.743C82.0897 18.7045 82.0577 18.73 82.0814 18.7998L82.1851 19.1021C82.208 19.1713 82.2547 19.1745 82.2854 19.1085L82.3354 19.0063C82.3659 18.9403 82.3417 18.8548 82.279 18.8176L82.153 18.743ZM82.3659 18.0077C82.4389 18.0095 82.4937 17.9513 82.4874 17.8785L82.4759 17.7557C82.4695 17.6815 82.41 17.649 82.3449 17.6827L81.8377 17.9495C81.7732 17.9834 81.7279 18.0708 81.7394 18.1438L81.7471 18.1986C81.7585 18.271 81.8072 18.2857 81.8571 18.2325L81.9831 18.0983C82.0334 18.0433 82.1334 18.0012 82.208 18.003L82.3659 18.0077ZM82.2272 18.1533L82.2937 18.4475C82.3097 18.5203 82.3519 18.5848 82.3871 18.5913C82.4227 18.5976 82.4502 18.5427 82.4484 18.4685L82.4439 18.2985C82.442 18.2261 82.3999 18.163 82.3519 18.1597C82.3032 18.1565 82.263 18.1533 82.263 18.1533H82.2272ZM80.4396 19.8323C80.4364 19.9065 80.4703 19.973 80.5174 19.9793C80.5624 19.9844 80.5963 19.9308 80.5917 19.8566L80.5821 19.6756C80.5789 19.6014 80.5496 19.496 80.5174 19.441C80.4831 19.3866 80.4556 19.4008 80.4525 19.4736L80.4396 19.8323ZM80.6109 18.1565L80.8776 17.9027C80.9312 17.8528 80.9651 17.7735 80.9504 17.7282C80.9376 17.6827 80.8776 17.6797 80.8179 17.7217L80.5061 17.9353C80.4446 17.977 80.4218 18.0645 80.4543 18.129C80.4869 18.1955 80.5579 18.2065 80.6109 18.1565ZM80.7061 18.4558C80.6659 18.517 80.6596 18.6202 80.6921 18.6865L80.7144 18.73C80.7466 18.7965 80.8034 18.8528 80.8391 18.856C80.8744 18.8593 80.9069 18.803 80.9101 18.7288L80.9326 18.2403C80.9358 18.166 80.9051 18.1565 80.8648 18.2178L80.7061 18.4558ZM82.2969 17.2677C82.3307 17.2027 82.3065 17.1802 82.2432 17.2205L81.9619 17.397C81.9006 17.4354 81.8909 17.5115 81.9414 17.565L81.9817 17.6067C82.0317 17.6603 82.1012 17.6507 82.1352 17.5842L82.2969 17.2677ZM81.1734 18.3682C81.1946 18.4378 81.2541 18.4538 81.3077 18.404L81.3627 18.3521C81.4159 18.3017 81.4549 18.2243 81.4484 18.1822C81.4416 18.1405 81.3769 18.1195 81.3046 18.1355L81.2478 18.1482C81.1749 18.1648 81.1332 18.234 81.1538 18.305L81.1734 18.3682ZM81.8489 13.3773C82.0622 13.4016 83.197 13.6151 83.41 13.6376C83.6217 13.6618 83.5283 13.4968 83.5283 13.4968C83.5283 13.4968 83.5865 13.4258 83.4682 13.3903C83.3505 13.3549 82.6652 13.2238 82.4407 13.2014C82.2157 13.1771 81.9669 13.1528 81.9669 13.1528L81.3174 13.2724C81.3174 13.2724 81.6371 13.3549 81.8489 13.3773ZM75.6674 19.7128L76.8502 18.7915C76.9085 18.7466 76.9002 18.73 76.831 18.7575L75.8157 19.1571C75.7479 19.1828 75.6884 19.2651 75.6847 19.3393L75.6674 19.6774V19.7128ZM76.5675 19.2893C76.5139 19.3411 76.5254 19.4103 76.59 19.4461L76.684 19.496C76.7485 19.5318 76.8452 19.5171 76.8987 19.4673L77.7455 18.6477C77.799 18.5976 77.7863 18.5765 77.7165 18.6028L77.1168 18.8273C77.0472 18.8528 76.9487 18.916 76.8955 18.9678L76.5675 19.2893ZM77.3578 19.3943L77.7683 19.404C77.8411 19.404 77.941 19.3605 77.9895 19.3055C77.9895 19.3055 78.6698 18.5203 78.9058 18.3663C78.9058 18.3663 78.0203 18.6028 77.3578 19.3943ZM78.7996 19.3943C78.8948 19.0988 79.4505 18.1775 79.4505 18.1775C78.7766 18.6265 78.4097 19.2216 78.4097 19.2216C78.3713 19.2845 78.3988 19.3425 78.471 19.3523L78.7996 19.3943ZM79.3328 19.4301C79.3438 19.1808 79.6621 18.3068 79.6621 18.3068C79.2843 18.709 79.1013 19.333 79.1013 19.333C79.0835 19.404 79.1678 19.4123 79.2406 19.4206L79.3328 19.4301ZM77.721 18.2843C77.794 18.2775 77.8783 18.216 77.9072 18.1482L77.9915 17.9462C78.0203 17.8785 77.9895 17.8495 77.9232 17.8803L77.065 18.2953C76.9992 18.3278 77.0037 18.3488 77.0779 18.3425L77.721 18.2843ZM78.3873 18.1468C78.3355 18.1986 78.3515 18.223 78.4211 18.2L79.4408 17.911C79.5106 17.888 79.5783 17.893 79.5798 17.8188L79.5765 17.4002C79.5783 17.3272 79.5266 17.2952 79.4601 17.3272L79.2146 17.4532C79.1486 17.4872 79.0528 17.5587 79.003 17.6117L78.3873 18.1468ZM79.9306 17.195C79.8675 17.2352 79.8174 17.3272 79.8194 17.4002L79.8256 17.6297C79.8271 17.7025 79.8691 17.7199 79.9211 17.6667L80.4556 17.1042C80.5074 17.051 80.5579 16.9475 80.5656 16.8732L80.5789 16.773C80.5886 16.7002 80.6371 16.5952 80.6871 16.5402L80.8372 16.374C80.8871 16.319 80.9247 16.2397 80.9211 16.1976C80.9179 16.154 80.8616 16.1459 80.7937 16.1752L80.6481 16.2429C80.5803 16.2719 80.5207 16.3479 80.5138 16.4092C80.5074 16.4724 80.4556 16.5612 80.3993 16.608L80.2618 16.7198C80.2054 16.7685 80.1749 16.8504 80.1941 16.9072C80.2133 16.9622 80.1794 17.0397 80.1166 17.0785L79.9306 17.195ZM81.4984 15.3991C81.4254 15.3991 81.3449 15.4559 81.3187 15.5254L81.2331 15.7582C81.2074 15.8274 81.2171 15.8969 81.2529 15.9131C81.2881 15.9295 81.3514 15.8939 81.3949 15.8324L81.4887 15.6982C81.5304 15.6387 81.5954 15.5914 81.6307 15.5946C81.6664 15.5979 81.6761 15.6579 81.6537 15.7275L81.5129 16.1477C81.4901 16.2172 81.4141 16.2915 81.3431 16.3139L81.1492 16.3754C81.0796 16.3982 81.0279 16.4692 81.0343 16.5337C81.0412 16.5984 80.9146 16.7135 80.8666 16.7602C80.8179 16.8055 80.8341 16.8637 80.9037 16.8892H81.0616C81.1314 16.9155 81.2349 16.8989 81.2931 16.8522L81.8974 16.3689C81.9556 16.3236 82.0027 16.2462 82.0027 16.1976C82.0027 16.1489 81.9587 16.1489 81.9057 16.2007L81.8992 16.2057C81.8456 16.2557 81.7682 16.2947 81.7247 16.2915C81.6824 16.2882 81.6679 16.2282 81.6907 16.1592L81.7714 15.9162C81.7957 15.8472 81.8135 15.7289 81.8135 15.6547V15.5334C81.8135 15.4591 81.7534 15.3991 81.6794 15.3991H81.4984ZM73.3466 8.1461C73.298 8.09254 73.2833 8.10243 73.3158 8.16857L73.8958 9.36935C73.9284 9.43567 74.0076 9.51816 74.0721 9.55393C74.0721 9.55393 75.2889 10.2099 76.2702 10.3519C76.2702 10.3519 75.4199 9.74911 74.8527 9.53739C74.2851 9.32441 74.2677 9.25288 74.2677 9.25288C74.2513 9.18189 74.1963 9.07836 74.1482 9.02336L73.3466 8.1461ZM72.6708 9.39846C72.6936 9.4682 72.7596 9.56345 72.8164 9.61018L73.1171 9.85443C73.1751 9.90116 73.2315 9.90116 73.2448 9.85569C73.2576 9.8104 73.3236 9.7962 73.3933 9.8237L74.9399 10.5379C75.0242 10.5717 75.0319 10.4797 74.9595 10.4247C74.9595 10.4247 74.3791 9.97396 74.2141 9.85569C74.0493 9.73797 73.7891 9.60065 73.7891 9.60065C73.7231 9.56489 73.6196 9.50342 73.5581 9.46316L72.5531 8.79565C72.4916 8.75539 72.461 8.77785 72.4833 8.84885L72.6708 9.39846ZM76.1469 10.9159C76.2152 10.9452 76.2102 10.9709 76.1374 10.9758L75.3522 11.029C75.2794 11.034 75.2761 11.0565 75.3471 11.0777L75.989 11.2815C76.0599 11.304 76.0581 11.3377 75.9872 11.3575L75.5139 11.4867C75.4424 11.506 75.4167 11.5723 75.4909 11.582L76.2442 11.635C76.317 11.6447 76.3202 11.6722 76.2506 11.6983L75.6124 11.8455C75.5427 11.8697 75.5864 11.9585 75.6591 11.9585L77.3657 11.9375C77.4403 11.9375 77.4448 11.91 77.379 11.8775L76.3797 11.3927C76.3137 11.3607 76.3184 11.3365 76.393 11.3395L77.0472 11.3735C77.12 11.3782 77.1315 11.3442 77.0733 11.3007L76.152 10.6235C76.4722 10.7303 76.81 10.7382 76.81 10.7382C76.8842 10.7414 76.8937 10.7092 76.8342 10.667L76.6175 10.5219C76.5574 10.4812 76.4462 10.4504 76.3734 10.4537L75.2422 10.4829C75.1694 10.4862 75.1259 10.5737 75.1954 10.6012L76.1469 10.9159ZM72.7486 10.4587C72.8956 10.4862 72.9943 10.5104 73.0653 10.488L73.094 10.4779C73.1636 10.4537 73.2786 10.4522 73.3498 10.4714L74.7946 11.0002C74.9237 11.0615 74.9738 10.9465 74.9109 10.908L73.5371 10.0902C73.4738 10.0532 73.3786 10.0564 73.3268 10.0981C73.2754 10.1402 73.1816 10.1434 73.1183 10.1064L71.8933 9.36935C71.8305 9.33214 71.7206 9.14989 71.672 9.22862L72.7486 10.4587ZM71.562 10.2872C71.5895 10.3552 71.6688 10.4362 71.7353 10.467L72.9456 11.018C73.0121 11.0487 73.1284 11.0777 73.2008 11.0827L73.2653 11.0872C73.3383 11.0922 73.4546 11.1179 73.5241 11.144L74.1834 11.3927C74.2513 11.4188 74.3694 11.4427 74.4424 11.4463L74.9431 11.4688C75.0159 11.472 75.0224 11.4495 74.9559 11.4188L73.3658 10.6799C73.2993 10.6492 73.2236 10.6799 73.1961 10.7497L73.1866 10.7788C72.6176 10.5768 71.4925 9.91249 71.4925 9.91249C71.4297 9.87546 71.4005 9.89919 71.4297 9.96749L71.562 10.2872ZM72.0263 11.275C72.0793 11.3264 72.181 11.3782 72.2538 11.3882L73.1943 11.527C73.2671 11.5365 73.3676 11.5883 73.4156 11.64C73.4643 11.6932 73.5646 11.7405 73.6388 11.7468L74.7896 11.8536C74.8638 11.86 74.8671 11.8435 74.7979 11.816L73.2511 11.2055C73.183 11.178 73.0683 11.1408 72.9973 11.123L71.601 10.7642C71.53 10.7464 71.5153 10.772 71.5671 10.8237L72.0263 11.275ZM75.5977 12.5385C74.8171 12.5858 74.0153 12.3333 74.0153 12.3333C73.9429 12.3236 73.9429 12.309 74.0171 12.3013L75.0855 12.1978C75.1579 12.1895 75.1597 12.1753 75.0869 12.162L73.5063 11.8985C73.4336 11.8875 73.3351 11.8403 73.2865 11.7937C73.238 11.7482 73.1381 11.7048 73.0633 11.695L72.1843 11.5865C72.11 11.577 72.105 11.598 72.1701 11.632L72.6418 11.8742C72.7065 11.9082 72.8196 11.949 72.8906 11.9664L73.6695 12.1428C73.7409 12.1587 73.7409 12.172 73.6663 12.172L72.7871 12.162C72.6433 12.1605 72.5608 12.2091 72.7015 12.243L74.0964 12.5193C74.1674 12.5371 74.1688 12.571 74.0996 12.5953L73.5563 12.6873C73.2429 12.7973 73.3336 12.802 73.6145 12.8198L74.8606 12.8973C74.9334 12.9023 74.9352 12.9201 74.8638 12.9381L74.0689 13.0073C73.9961 13.025 73.9071 13.1658 74.1821 13.1368L75.6802 13.059C75.753 13.0558 75.8047 13.0461 75.8272 12.9993C75.8497 12.9541 75.8094 12.9088 75.7364 12.8973L74.5472 12.713C74.4744 12.7021 74.4744 12.6873 74.5486 12.6825L75.6074 12.676C75.6816 12.6695 75.6784 12.5775 75.6059 12.566L75.5977 12.5385ZM76.0114 12.9993C76.661 13.0705 77.5291 12.7891 77.5291 12.7891C77.597 12.7616 77.6047 12.713 77.5467 12.681C77.4884 12.6485 77.4953 12.5935 77.5598 12.5615L77.8297 12.4222C77.8957 12.3883 77.891 12.3466 77.8182 12.3288L76.7307 12.052C76.6597 12.0346 76.5447 12.0378 76.4737 12.0588L76.0339 12.1958C76.3412 12.3498 76.8597 12.3013 76.8597 12.3013C76.9327 12.2898 76.9377 12.3058 76.8712 12.3383L76.3412 12.5985C76.7435 12.6568 77.12 12.5775 77.12 12.5775C77.193 12.5628 77.3208 12.5583 77.2512 12.5858C77.2512 12.5858 76.6482 12.9656 76.0114 12.9993ZM78.5375 12.7278C78.5375 12.7278 78.1948 12.736 78.088 12.736C77.9813 12.736 77.9025 12.7763 77.9025 12.7763C77.9025 12.7763 77.3465 13.0236 77.193 13.0948C77.0395 13.1658 76.9665 13.2271 76.519 13.2724C75.9162 13.3306 74.6636 13.3081 74.6636 13.3081C74.6509 13.4968 74.5326 13.7328 74.5326 13.7328C74.7104 13.7086 75.0887 13.6733 75.2422 13.6618C75.3957 13.6505 75.4314 13.6023 75.4667 13.5666C75.5024 13.5326 75.7026 13.4726 75.7026 13.4726C75.7026 13.4726 76.212 13.4616 77.0747 13.4131C77.9378 13.3664 78.5875 12.7988 78.5875 12.7988C78.652 12.7488 78.5375 12.7278 78.5375 12.7278ZM79.8206 14.0677C79.4766 14.0416 79.0593 14.1466 79.0593 14.1466C79.4153 13.9336 79.4281 13.7476 79.4281 13.7476C79.4459 13.6811 79.3553 13.6669 79.2243 13.6505C79.0936 13.6343 78.423 13.7476 77.854 14.0159C77.7618 14.0596 77.6065 14.1581 77.3707 14.1466C77.1329 14.1356 75.7384 13.9336 75.7384 13.9336C78.1853 13.9445 79.0368 13.2368 79.0368 13.2368C79.0368 13.2368 79.1418 13.1268 78.3743 13.1881C78.2562 13.1983 78.1385 13.2596 78.1385 13.2596C77.393 13.7571 76.9794 13.7086 76.4365 13.6733C75.8917 13.6376 74.9949 13.9336 74.9949 13.9336L75.0306 14.3247C75.4909 14.1466 76.4589 14.2646 76.4589 14.2646C75.8917 14.4649 75.4557 14.4426 75.4557 14.4426L75.4909 14.8209C76.1762 14.8319 76.8727 14.5364 76.8727 14.5364C76.661 14.6074 76.3184 14.4782 76.3184 14.4782C76.59 14.3829 77.2154 14.3247 77.629 14.2761C78.0433 14.2291 78.292 14.1113 78.5408 13.9931C78.7881 13.8753 78.9416 13.9688 78.9416 13.9688C78.8233 14.0756 78.5408 14.2761 78.3988 14.3939C78.2562 14.5136 78.1385 14.5249 78.1385 14.5249C78.1385 14.5249 77.7133 14.5492 77.3707 14.5249C77.0265 14.5006 77.0619 14.6899 77.0619 14.6899C76.4832 14.8919 75.6802 15.0324 75.6802 15.0324L75.8561 15.3991C76.2832 15.3752 77.4998 15.1504 77.4998 15.1504C76.6015 15.5059 76.3055 15.5529 76.3055 15.5529L76.4832 15.8957C77.1572 15.6482 77.9735 15.5529 77.9735 15.5529C77.524 15.8375 76.957 16.0019 76.957 16.0019L77.1329 16.3562L78.4921 15.7307C78.1385 15.8132 77.7715 15.7774 77.7715 15.7774C78.505 15.6354 78.8477 15.317 78.8477 15.317C78.2677 15.4234 77.3465 15.3752 77.3465 15.3752L78.5163 15.0211C77.831 15.0569 76.7902 14.9144 76.7902 14.9144C77.453 14.9386 78.303 14.6541 78.6698 14.5006C79.0368 14.3471 79.2613 14.3247 79.2613 14.3247C79.166 14.6671 78.7766 14.9611 78.7766 14.9611C79.5559 14.9611 79.9223 14.1581 79.9223 14.1581C79.9518 14.0871 79.8206 14.0677 79.8206 14.0677ZM79.0853 15.2974C79.6883 15.2149 80.1263 14.8484 80.2911 14.6834C80.4556 14.5166 80.3508 14.5409 80.1616 14.5524C79.9728 14.5653 79.8194 14.5653 79.7478 14.6701C79.6768 14.7769 79.26 15.1036 79.003 15.2731C78.8609 15.3684 79.0853 15.2974 79.0853 15.2974ZM79.6979 15.4719C79.5316 15.6011 79.5911 15.6304 79.5911 15.6304C80.1583 15.4884 80.4786 15.1394 80.4786 15.1394C80.8226 15.0743 80.6321 15.3281 80.4186 15.5639C80.3073 15.6886 80.2299 15.7774 80.2299 15.7774C80.8323 15.5964 81.0394 15.3459 81.1492 15.1732C81.2867 14.9534 81.1882 15.0096 81.0343 15.0211C80.8808 15.0324 80.3494 15.0211 80.1826 15.0096C80.0176 14.9969 79.9939 15.1279 79.9939 15.1279C79.9223 15.2213 79.8628 15.3409 79.6979 15.4719ZM77.7843 16.3092L77.9025 16.652C77.9025 16.652 78.6455 16.3562 79.2018 16.0377C79.2018 16.0377 79.0483 16.3204 78.6233 16.5452L78.6942 16.8765C78.6942 16.8765 79.2613 16.7473 79.7336 16.4757C79.7336 16.4757 79.5686 16.794 78.8477 17.0657V17.232C78.8477 17.232 79.4506 17.1125 80.0176 16.6405L79.8513 16.5805C79.8513 16.5805 80.0406 16.4981 80.5253 16.0134C80.5253 16.0134 79.7804 16.3804 79.1775 16.4399C79.1775 16.4399 79.7336 16.2379 80.0291 15.8727C80.0291 15.8727 78.9416 15.9909 78.7523 16.0019C78.7523 16.0019 79.1775 15.8484 79.4734 15.6239C79.4734 15.6239 79.1551 15.6707 78.8591 15.6354C78.8591 15.6354 78.7638 15.8017 78.5745 15.9084C78.3853 16.0134 77.7843 16.2737 77.7843 16.2737V16.3092ZM80.0649 18.4781C80.0924 18.3618 80.0323 18.2971 79.9179 18.331C79.8531 18.3183 79.8564 19.0613 79.8691 19.5061C79.9013 19.5061 79.9498 19.5235 79.9678 19.4915C80.0323 19.147 79.9838 18.8208 80.0649 18.4781ZM80.3264 19.3443C80.3443 19.2618 80.3429 19.1635 80.2618 19.0988C80.2441 19.0823 80.1959 19.0988 80.1959 19.0988C80.1474 19.3765 80.1474 19.6368 80.1308 19.9148C80.1423 19.9763 80.2248 19.9308 80.2281 19.9148C80.2619 19.7678 80.2861 19.5401 80.3264 19.3443ZM82.5327 20.3156C81.0214 20.6341 78.8233 21.5246 78.8233 21.5246C78.8233 21.5246 80.0859 22.4524 80.2586 22.5457C80.4331 22.6411 80.4249 22.7899 80.4249 22.9485C80.4249 23.1052 80.3961 23.3572 80.3961 23.3572C80.3961 23.3572 80.3961 23.3897 80.6646 23.2312C80.9312 23.0745 82.4502 22.2567 82.6312 22.0209C82.7897 21.8155 82.8009 22.0209 82.7234 22.1321C82.6442 22.242 82.5649 22.3845 82.5649 22.3845C82.5649 22.3845 83.8741 21.9594 84.3345 21.4244C84.4285 21.3129 84.5173 21.3451 84.4542 21.4569C84.3913 21.5663 84.3883 21.5534 84.3883 21.5534C84.3883 21.5534 85.2026 21.0266 85.9215 20.9653C86.5084 20.9154 87.2454 20.8719 87.5927 20.7293C87.5927 20.7293 87.7334 20.6666 87.6701 20.7926C87.6088 20.9184 87.5767 20.9184 87.5767 20.9184C87.5767 20.9184 88.3459 20.9071 88.9034 20.5969C89.046 20.5176 89.1572 20.2786 89.0472 20.1686C88.936 20.0572 87.5281 19.2491 87.5281 19.2491C87.5281 19.2491 87.5186 19.2198 87.3164 19.2491C86.8414 19.3136 85.8473 19.5286 85.8473 19.5286C85.8473 19.5286 85.8633 19.7013 85.8326 19.7805C85.8006 19.8598 85.7066 20.0798 85.4853 20.0329L85.3448 19.9698C85.3448 19.9698 85.3448 20.0958 85.2188 20.1589L84.8876 19.9536L84.068 20.0329C84.068 20.0329 84.0358 20.3316 84.0213 20.4576C84.0047 20.5841 83.9567 20.7568 83.7527 20.6794C83.5475 20.6001 83.5942 20.6161 83.5942 20.6161C83.5942 20.6161 83.5315 20.9781 83.389 20.8521C83.2484 20.7261 83.2324 20.7101 83.2324 20.7101C83.2324 20.7101 83.1063 20.9781 83.011 20.8361C82.9172 20.6936 82.5327 20.3156 82.5327 20.3156ZM83.0674 20.1264C83.137 20.2216 83.2905 20.4466 83.3505 20.5291C83.41 20.6116 83.4797 20.6468 83.504 20.4934C83.5283 20.3399 83.5218 20.2931 83.41 20.2331C83.2324 20.1393 83.0674 20.1264 83.0674 20.1264ZM82.809 20.2414C82.88 20.2414 82.9722 20.5176 83.0322 20.6001C83.0903 20.6826 83.1257 20.6468 83.1257 20.5643C83.1257 20.4819 83.0789 20.3514 82.9964 20.2331C82.9127 20.1154 82.6684 20.1833 82.5845 20.2541C82.5845 20.2541 82.738 20.2414 82.809 20.2414ZM83.3147 20.0683C83.5186 20.1021 83.7042 20.246 83.7285 20.3866C83.7527 20.5291 83.8352 20.5049 83.8352 20.3756C83.8352 20.246 83.8595 20.0216 83.7175 19.9973C83.575 19.973 83.3748 19.9844 83.3034 19.9844C83.2324 19.9844 83.2437 20.0554 83.3147 20.0683ZM85.4418 19.7613C85.4303 19.6193 85.183 19.5235 85.183 19.5235C85.2528 19.5836 85.3013 19.7045 85.3236 19.7838C85.348 19.8663 85.4546 19.9019 85.4418 19.7613ZM85.5486 19.7838C85.5306 19.9065 85.6548 19.8323 85.6663 19.7128C85.6791 19.5951 85.5258 19.4186 85.348 19.3943C85.348 19.3943 85.5725 19.6303 85.5486 19.7838ZM84.7808 19.7971C84.8876 19.7838 84.9701 19.8663 85.0878 19.9373C85.2059 20.0086 85.1945 19.9148 85.183 19.8196C85.1703 19.7256 85.0763 19.6546 85.0295 19.6193C84.981 19.5836 84.8275 19.5721 84.8275 19.5721L84.1665 19.8663C84.1665 19.8663 84.674 19.808 84.7808 19.7971ZM79.9389 21.8462C79.6883 21.6717 79.6283 21.6296 79.5733 21.5924C79.5169 21.5534 79.4798 21.5374 79.4505 21.5374C79.4358 21.5374 79.4216 21.5392 79.4103 21.5424C79.4006 21.5457 79.3923 21.5457 79.3796 21.5356C79.3698 21.5291 79.3731 21.5246 79.3878 21.5196C79.423 21.5099 79.588 21.4614 79.6218 21.4519C79.6348 21.4466 79.6461 21.4466 79.6558 21.4549C79.6686 21.4632 79.6653 21.4679 79.6576 21.4711C79.6481 21.4729 79.6411 21.4761 79.6333 21.4824C79.6173 21.4954 79.6378 21.5164 79.6928 21.5584C79.7446 21.5956 79.8046 21.6377 80.0553 21.8124L80.3443 22.0157C80.5043 22.1289 80.7227 22.2856 80.7969 22.3342C80.8454 22.3649 80.8808 22.3827 80.9146 22.3794C80.9312 22.3776 80.9554 22.3744 80.9696 22.3699C80.9793 22.3681 80.9894 22.3699 80.9971 22.3744C81.0086 22.3827 81.0068 22.3891 80.9959 22.3924C80.9344 22.4102 80.8001 22.4812 80.7631 22.4927C80.7502 22.4959 80.7388 22.4939 80.7273 22.4862C80.7196 22.4812 80.7176 22.4767 80.7291 22.4734C80.7433 22.4684 80.7502 22.4634 80.7566 22.4587C80.7676 22.4492 80.7176 22.4037 80.6724 22.3699C80.6078 22.3194 80.3878 22.1614 80.2299 22.0496L79.9389 21.8462ZM80.9554 22.0886C81.0846 22.1792 81.2009 22.2567 81.2317 22.2599C81.2574 22.2614 81.2752 22.2581 81.2913 22.2534C81.3014 22.2502 81.3091 22.2517 81.3206 22.2581C81.3334 22.2682 81.3284 22.2727 81.3142 22.2759C81.2541 22.2937 81.1621 22.3392 81.1134 22.3537C81.1006 22.357 81.0911 22.3584 81.0764 22.3489C81.0669 22.3406 81.0687 22.3374 81.0782 22.3342C81.0891 22.3309 81.1057 22.3244 81.1121 22.3164C81.1231 22.3002 81.0036 22.1985 80.8616 22.0982L79.8948 21.4129C79.8628 21.3886 79.8418 21.3726 79.8513 21.3694C79.861 21.3661 79.8918 21.3789 79.9371 21.3954C79.9696 21.4064 80.3781 21.5534 80.7534 21.6814C80.9279 21.7409 81.2913 21.8704 81.3334 21.8846L81.3384 21.8834L80.5092 21.3144C80.4089 21.2448 80.3686 21.2254 80.3296 21.2209C80.3053 21.2173 80.2829 21.2241 80.2716 21.2286C80.2604 21.2304 80.2503 21.2286 80.2408 21.2222C80.2281 21.2126 80.2361 21.2094 80.2503 21.2044C80.299 21.1902 80.3494 21.1801 80.3686 21.1756C80.3781 21.1724 80.4089 21.1576 80.4543 21.1449C80.4657 21.1416 80.4768 21.1398 80.4899 21.1481C80.4996 21.1558 80.4996 21.1609 80.4881 21.1641C80.48 21.1673 80.4721 21.1691 80.4657 21.1756C80.4525 21.1934 80.48 21.2191 80.5706 21.2836L81.6794 22.0674C81.715 22.0937 81.7259 22.1046 81.7182 22.1079C81.7087 22.1097 81.6794 22.1014 81.6504 22.0917C81.4934 22.0387 81.1589 21.9222 80.8923 21.8316C80.6129 21.7376 80.3041 21.6231 80.2556 21.6071H80.2523L80.9554 22.0886ZM81.1459 21.4084C80.8954 21.2319 80.8501 21.1999 80.7951 21.1627C80.7369 21.1238 80.7031 21.1091 80.6614 21.1091C80.6499 21.1091 80.6339 21.1123 80.6206 21.1174C80.6096 21.1186 80.6014 21.1186 80.5899 21.1109C80.5789 21.1026 80.5803 21.0976 80.5949 21.0944C80.6449 21.0802 80.7081 21.0656 80.7336 21.0591C80.7631 21.0496 80.8161 21.0298 80.8729 21.0121C80.9894 20.9781 81.1443 20.9332 81.4319 21.0349C81.5647 21.0816 81.8392 21.2209 82.0347 21.3579C82.2432 21.5036 82.3322 21.6149 82.3742 21.6959C82.4082 21.7637 82.4292 21.8737 82.2561 21.9236C82.1884 21.9447 82.0947 21.9736 82.0476 21.9869C82.0266 21.9932 81.9734 22.0144 81.9364 22.0254C81.9235 22.0286 81.9121 22.0272 81.9006 22.0189C81.8927 22.0144 81.8909 22.0094 81.9024 22.0061C81.917 22.0011 81.9249 21.9964 81.9299 21.9914C81.9414 21.9819 81.9006 21.9351 81.8571 21.9012C81.7924 21.8509 81.6812 21.7734 81.5289 21.6684L81.1459 21.4084ZM81.5372 21.5566C81.7119 21.6794 81.8199 21.7542 81.8521 21.7752C81.8942 21.8041 81.9619 21.8509 81.9882 21.8609C82.0316 21.8782 82.1026 21.8929 82.1754 21.8704C82.2707 21.8429 82.3014 21.8009 82.2707 21.7249C82.2401 21.6442 82.1287 21.5471 81.9587 21.4294C81.7489 21.2822 81.4709 21.1449 81.3627 21.1091C81.1332 21.0331 81.0068 21.0509 80.9344 21.0721C80.9166 21.0771 80.8871 21.0899 80.8859 21.0976C80.8841 21.1046 80.8891 21.1109 80.9083 21.1239C80.9633 21.1627 81.1057 21.2644 81.2363 21.3546L81.5372 21.5566ZM82.0252 21.1398C81.7682 20.9607 81.7214 20.9263 81.6646 20.8891C81.6051 20.8507 81.5712 20.8341 81.5271 20.8341C81.5162 20.8341 81.4984 20.8374 81.4837 20.8424C81.4739 20.8456 81.4644 20.8444 81.4529 20.8361C81.4416 20.8278 81.4448 20.8232 81.4594 20.8201C81.5097 20.8054 81.5744 20.7906 81.6019 20.7829C81.6327 20.7746 81.8232 20.7178 81.8392 20.7114C81.8539 20.7051 81.8652 20.6972 81.8699 20.6923C81.8731 20.6903 81.8731 20.6858 81.8782 20.684C81.8832 20.6826 81.8909 20.6871 81.8992 20.6923C81.9101 20.7004 81.9267 20.7166 82.0009 20.7714C82.0169 20.7843 82.0897 20.8361 82.1077 20.8507C82.1159 20.8571 82.1237 20.8649 82.1172 20.8667C82.1109 20.8681 82.1012 20.8636 82.0847 20.8521C82.0737 20.8444 82.043 20.8246 82.0187 20.8118C81.9817 20.7926 81.9509 20.7811 81.8942 20.7876C81.8731 20.7906 81.77 20.8169 81.7504 20.8232C81.7457 20.8246 81.7504 20.8278 81.7617 20.8361L82.1902 21.1352C82.2011 21.1431 82.2094 21.1481 82.2144 21.1461C82.2355 21.1398 82.3449 21.1077 82.3647 21.0994C82.3839 21.0899 82.3934 21.0816 82.3839 21.0689C82.3774 21.0573 82.3724 21.0496 82.3774 21.0476C82.3825 21.0476 82.3872 21.0496 82.3985 21.0559C82.4082 21.0624 82.4307 21.0834 82.5131 21.1449C82.5457 21.1691 82.612 21.2159 82.623 21.2241C82.6377 21.2337 82.6555 21.2466 82.6474 21.2497C82.6409 21.2516 82.6312 21.2466 82.623 21.2416C82.6052 21.2304 82.5827 21.2139 82.5584 21.1999C82.5194 21.1769 82.481 21.1641 82.4389 21.1691C82.4177 21.1724 82.3212 21.1999 82.2982 21.2062C82.2937 21.2076 82.3 21.2126 82.3097 21.2191L82.4439 21.3129C82.5002 21.3534 82.6555 21.4614 82.7055 21.4954C82.8237 21.5764 82.864 21.5892 82.9625 21.5617C82.9867 21.5534 83.0272 21.5424 83.0322 21.5214C83.0367 21.4984 83.0124 21.4711 82.9497 21.4211C82.9317 21.4064 82.9267 21.4019 82.935 21.4001C82.9414 21.3987 82.9562 21.4064 82.9722 21.4193C83.011 21.4454 83.1192 21.5291 83.1485 21.5534C83.1855 21.5859 83.176 21.5892 83.1402 21.5989C82.9964 21.6409 82.8154 21.7069 82.7782 21.7184C82.7655 21.7216 82.754 21.7202 82.7427 21.7119C82.7347 21.7056 82.7329 21.7006 82.7445 21.6974C82.759 21.6927 82.7669 21.6877 82.772 21.6826C82.7847 21.6731 82.7507 21.6456 82.7073 21.6102C82.6409 21.5584 82.4777 21.4569 82.3224 21.3469L82.0252 21.1398ZM82.6327 20.9314C82.3825 20.7568 82.3354 20.7247 82.2804 20.6871C82.224 20.6486 82.1902 20.6323 82.1479 20.6341C82.1366 20.6341 82.1192 20.6371 82.1057 20.6406C82.0962 20.6436 82.0865 20.6436 82.0751 20.6353C82.0642 20.6276 82.0674 20.6226 82.0814 20.6193C82.1301 20.6048 82.1932 20.5904 82.2209 20.5841C82.2579 20.5726 82.3079 20.5516 82.3499 20.5401C82.4664 20.5061 82.5777 20.5419 82.6167 20.5548C82.6717 20.5726 82.772 20.6179 82.8589 20.6794C83.0935 20.8424 83.1613 20.9864 83.029 21.0252C83.0239 21.0266 83.0142 21.0299 83.0079 21.0299C83.0015 21.0299 82.9932 21.0316 82.9817 21.0234C82.9689 21.0139 82.9707 21.0088 82.99 21.0024C83.0417 20.9882 83.011 20.8924 82.8429 20.7761C82.788 20.7376 82.6747 20.6596 82.5406 20.6179C82.4535 20.5904 82.4049 20.5936 82.3839 20.6001C82.3692 20.6048 82.3582 20.6096 82.355 20.6161C82.3519 20.6193 82.3597 20.6276 82.3774 20.6406L83.0367 21.1026C83.187 21.2076 83.3602 21.3144 83.4362 21.3611C83.4848 21.3936 83.5265 21.4179 83.5604 21.4129C83.577 21.4114 83.6012 21.4084 83.6152 21.4051C83.625 21.4019 83.635 21.4032 83.6427 21.4096C83.6542 21.4179 83.651 21.4229 83.6415 21.4262C83.58 21.4436 83.5169 21.4581 83.4925 21.4646C83.4715 21.4711 83.4183 21.4921 83.3794 21.5036C83.3685 21.5067 83.357 21.5049 83.3455 21.4971C83.3377 21.4907 83.3359 21.4856 83.3473 21.4824C83.3602 21.4792 83.3685 21.4729 83.373 21.4679C83.3857 21.4581 83.3537 21.4326 83.3102 21.3969C83.2452 21.3469 83.0737 21.2416 82.9222 21.1352L82.6327 20.9314ZM84.0358 20.0944C84.0391 20.0926 84.0437 20.0926 84.0488 20.0911C84.0597 20.0861 84.0712 20.0848 84.084 20.0944C84.0955 20.1008 84.094 20.1053 84.0825 20.1104C84.0743 20.1118 84.0665 20.1154 84.0597 20.1219C84.0468 20.1378 84.0743 20.1636 84.1683 20.2281L85.1895 20.9168C85.2253 20.9429 85.2366 20.9538 85.2283 20.9556C85.2188 20.9589 85.1895 20.9492 85.1606 20.9396C85.0008 20.8891 84.6613 20.7746 84.3913 20.6858C84.2443 20.6371 84.0872 20.5841 83.9663 20.5419L83.9841 20.4481C84.0712 20.4774 84.1618 20.5081 84.249 20.5369C84.4267 20.5951 84.7936 20.7229 84.8372 20.7358L84.8421 20.7344L84.1068 20.2594C84.073 20.2363 84.0468 20.2203 84.0245 20.2056L84.0358 20.0944ZM83.9323 20.5904L84.4593 20.9411C84.5915 21.0299 84.6465 21.0559 84.6773 21.0573C84.7048 21.0591 84.7226 21.0559 84.7386 21.0509C84.7483 21.0476 84.758 21.0496 84.768 21.0559C84.7808 21.0656 84.7758 21.0701 84.7628 21.0739C84.7015 21.0913 84.6593 21.0994 84.6415 21.1046C84.6338 21.1059 84.5948 21.1219 84.5462 21.1366C84.5335 21.1416 84.5238 21.1416 84.5092 21.1319C84.4995 21.1251 84.5013 21.1206 84.511 21.1186C84.522 21.1156 84.5383 21.1091 84.5448 21.1008C84.5545 21.0834 84.511 21.0496 84.3653 20.9506L83.9017 20.6323L83.9323 20.5904ZM85.6031 19.9811L85.7923 20.1021C85.8038 20.1104 85.8121 20.1154 85.8166 20.1118C85.8378 20.1071 85.9458 20.0746 85.9636 20.0651C85.9828 20.0572 85.9931 20.0491 85.9828 20.0361C85.9765 20.0248 85.9719 20.0183 85.9765 20.0165C85.9798 20.0151 85.9866 20.0165 85.9961 20.0228C86.0071 20.0297 86.0301 20.0491 86.114 20.1053C86.1464 20.1296 86.2123 20.1736 86.2258 20.1813C86.2386 20.191 86.2578 20.2024 86.2481 20.2056C86.2418 20.2076 86.2335 20.2024 86.2258 20.1973C86.206 20.1864 86.185 20.1736 86.1593 20.1589C86.1203 20.1379 86.0819 20.1263 86.0396 20.1316C86.0186 20.1346 85.9233 20.1621 85.9009 20.1686C85.8976 20.1698 85.9023 20.1751 85.9138 20.1813L86.0479 20.2689C86.1061 20.3059 86.2628 20.4078 86.3128 20.4403C86.4341 20.5158 86.4744 20.5291 86.5698 20.4998C86.5941 20.4921 86.6343 20.4806 86.6376 20.4596C86.6408 20.4384 86.6166 20.4128 86.5538 20.3641C86.5359 20.3528 86.5308 20.3463 86.5377 20.3445C86.5456 20.3431 86.5583 20.3514 86.5761 20.3623C86.6151 20.3886 86.7251 20.4659 86.7539 20.4901C86.7929 20.5191 86.7832 20.5227 86.7476 20.5336C86.6056 20.5759 86.5326 20.5886 86.4778 20.6048C86.4552 20.6116 86.4016 20.6323 86.3631 20.6436C86.3516 20.6468 86.3403 20.6468 86.3274 20.6391C86.3191 20.6323 86.3178 20.6291 86.3288 20.6244C86.3434 20.6211 86.3516 20.6149 86.3563 20.6096C86.3676 20.6001 86.3356 20.5741 86.2885 20.5419C86.2226 20.4934 86.0863 20.4064 85.9298 20.3043L85.6293 20.1086C85.55 20.0586 85.4983 20.0248 85.4629 20.0023L85.6031 19.9811ZM86.4794 19.5981C86.4534 19.5931 86.4163 19.6014 86.4034 19.6046C86.3903 19.606 86.3806 19.6028 86.3709 19.5963C86.3563 19.5868 86.3646 19.5836 86.3806 19.5818C86.4323 19.5708 86.4859 19.5643 86.5066 19.5611C86.5181 19.5593 86.5506 19.5478 86.6004 19.5381C86.6133 19.535 86.6248 19.535 86.6394 19.5446C86.6503 19.551 86.6491 19.5561 86.6376 19.5573C86.6279 19.5611 86.6101 19.5656 86.6036 19.5721C86.5891 19.5868 86.7361 19.6756 86.7361 19.6756L87.6606 20.2511C87.6994 20.2753 87.7124 20.2849 87.7045 20.2881C87.6931 20.2913 87.6624 20.2831 87.6331 20.2735C87.4667 20.2248 87.1144 20.1186 86.8331 20.0361C86.5391 19.9488 86.2788 19.8873 86.2271 19.8713H86.2258L86.9156 20.2831C87.0564 20.3688 87.1144 20.3931 87.1466 20.3949C87.1726 20.3963 87.1919 20.3931 87.2084 20.3886C87.2181 20.3853 87.2276 20.3853 87.2373 20.3916C87.2519 20.4013 87.2469 20.4064 87.2341 20.4096C87.1726 20.4288 87.1306 20.4351 87.1126 20.4416C87.1031 20.4434 87.0646 20.4596 87.0159 20.4756C87.0046 20.4788 86.9931 20.4806 86.9771 20.4709C86.9674 20.4646 86.9688 20.4596 86.9789 20.4576C86.9917 20.4531 87.0064 20.4466 87.0129 20.4384C87.0224 20.4224 86.9739 20.3898 86.8204 20.2946L85.8926 19.7274C85.857 19.7045 85.8345 19.6903 85.8441 19.6871C85.8538 19.6839 85.8863 19.6948 85.9348 19.7096C85.9686 19.7211 86.2853 19.7761 86.6796 19.8923C86.8639 19.9473 87.2469 20.0669 87.2922 20.0778H87.2954L86.6796 19.7096C86.6796 19.7096 86.5213 19.6046 86.4794 19.5981Z" fill="#070707"/>
</svg>
