<svg width="127" height="125" viewBox="0 0 127 125" fill="none" xmlns="http://www.w3.org/2000/svg">
<g filter="url(#filter0_d)">
<rect x="40.6504" y="28.5244" width="45.5118" height="44" rx="12" fill="#3EA5DF"/>
</g>
<path fill-rule="evenodd" clip-rule="evenodd" d="M62.6041 46.7807L62.6467 47.4727L61.9367 47.388C59.3522 47.0631 57.0944 45.9615 55.1774 44.1113L54.2401 43.1933L53.9987 43.8713C53.4875 45.3825 53.8141 46.9784 54.8792 48.0518C55.4472 48.6449 55.3194 48.7297 54.3395 48.3766C53.9987 48.2636 53.7005 48.1789 53.6721 48.2212C53.5727 48.3201 53.9135 49.6053 54.1833 50.1138C54.5526 50.8199 55.3052 51.512 56.1288 51.9216L56.8246 52.2464L56.001 52.2605C55.2058 52.2605 55.1774 52.2747 55.2626 52.5712C55.5466 53.4893 56.6684 54.4638 57.918 54.8875L58.7984 55.1841L58.0316 55.636C56.8956 56.2857 55.5608 56.6529 54.2259 56.6811C53.5869 56.6953 53.0615 56.7518 53.0615 56.7941C53.0615 56.9354 54.794 57.7263 55.8022 58.037C58.8268 58.955 62.4195 58.5596 65.1175 56.9919C67.0346 55.8761 68.9516 53.6587 69.8462 51.512C70.329 50.368 70.8118 48.2777 70.8118 47.275C70.8118 46.6253 70.8545 46.5406 71.6497 45.7638C72.1183 45.3118 72.5585 44.8175 72.6437 44.6763C72.7857 44.4079 72.7715 44.4079 72.0473 44.648C70.8403 45.0717 70.6698 45.0152 71.2663 44.3797C71.7065 43.9277 72.2319 43.1086 72.2319 42.8685C72.2319 42.8261 72.0189 42.8967 71.7775 43.0238C71.5219 43.1651 70.9539 43.3769 70.5278 43.504L69.761 43.7441L69.0652 43.2781C68.6818 43.0238 68.1422 42.7414 67.8582 42.6566C67.134 42.4589 66.0264 42.4872 65.3731 42.7131C63.5981 43.3487 62.4763 44.987 62.6041 46.7807Z" fill="white"/>
<defs>
<filter id="filter0_d" x="0.650391" y="0.524414" width="125.512" height="124" filterUnits="userSpaceOnUse" color-interpolation-filters="sRGB">
<feFlood flood-opacity="0" result="BackgroundImageFix"/>
<feColorMatrix in="SourceAlpha" type="matrix" values="0 0 0 0 0 0 0 0 0 0 0 0 0 0 0 0 0 0 127 0"/>
<feOffset dy="12"/>
<feGaussianBlur stdDeviation="20"/>
<feColorMatrix type="matrix" values="0 0 0 0 0.027451 0 0 0 0 0.027451 0 0 0 0 0.027451 0 0 0 0.12 0"/>
<feBlend mode="normal" in2="BackgroundImageFix" result="effect1_dropShadow"/>
<feBlend mode="normal" in="SourceGraphic" in2="effect1_dropShadow" result="shape"/>
</filter>
</defs>
</svg>
